<?xml version="1.0" standalone="no"?>
<!DOCTYPE svg PUBLIC "-//W3C//DTD SVG 20010904//EN"
 "http://www.w3.org/TR/2001/REC-SVG-20010904/DTD/svg10.dtd">
<svg version="1.0" xmlns="http://www.w3.org/2000/svg"
 width="1279.000000pt" height="1280.000000pt" viewBox="0 0 1279.000000 1280.000000"
 preserveAspectRatio="xMidYMid meet">
<metadata>
Created by potrace 1.15, written by Peter Selinger 2001-2017
</metadata>
<g transform="translate(0.000000,1280.000000) scale(0.100000,-0.100000)"
fill="#000000" stroke="none">
<path d="M4053 11633 c-9 -3 -13 -34 -13 -107 l0 -102 -57 -12 c-68 -15 -142
-51 -199 -97 -45 -37 -124 -148 -149 -207 l-15 -38 45 0 45 0 0 -270 0 -270
-50 0 -50 0 0 -130 0 -130 55 0 55 0 -1 -62 c0 -35 -19 -400 -42 -812 l-42
-750 -221 -206 c-487 -454 -851 -759 -1494 -1252 -140 -107 -272 -214 -294
-238 -61 -68 -80 -120 -81 -225 0 -169 43 -221 385 -461 585 -409 1197 -894
1769 -1401 l36 -32 -94 -1 c-108 0 -169 -22 -189 -66 -7 -14 -12 -65 -12 -114
l0 -90 -545 0 c-300 0 -545 -2 -545 -5 0 -3 124 -222 275 -486 l275 -481 -275
-483 c-151 -265 -275 -485 -275 -489 0 -11 1552 -7 1595 5 22 6 52 23 68 37
26 25 27 30 27 124 l0 98 780 0 779 0 94 -123 c119 -155 268 -363 384 -538
101 -151 159 -209 239 -239 106 -39 244 -21 329 44 42 32 125 139 300 386 76
107 183 257 237 332 l99 138 735 0 734 0 0 -99 c0 -98 0 -99 30 -125 17 -14
47 -30 68 -36 40 -11 1592 -15 1592 -4 0 3 -124 223 -275 489 l-274 482 270
474 c149 261 273 480 276 486 4 10 -108 13 -541 13 l-546 0 0 90 c0 108 -10
134 -65 160 -34 17 -61 20 -159 20 -65 0 -116 4 -114 9 5 13 285 279 513 486
435 397 741 648 1293 1063 174 131 332 256 351 277 56 64 76 119 76 210 0 66
-5 90 -27 137 -47 102 -81 132 -318 291 -938 627 -1612 1175 -2310 1876 -800
804 -1455 1551 -1910 2180 -126 174 -156 206 -229 240 -49 23 -69 26 -156 26
-95 0 -103 -2 -163 -34 -87 -47 -142 -111 -338 -388 -316 -448 -539 -740 -855
-1119 -244 -294 -484 -566 -486 -552 -1 7 -9 153 -18 323 -8 171 -17 334 -20
363 l-5 52 55 0 55 0 0 130 0 130 -50 0 -50 0 0 270 0 270 45 0 44 0 -13 38
c-37 103 -119 208 -199 255 -48 29 -138 57 -179 57 l-28 0 0 104 c0 104 -5
120 -37 109z m2366 -79 c63 -26 97 -61 204 -211 441 -615 1145 -1419 1952
-2229 656 -659 1371 -1239 2261 -1834 254 -171 286 -198 331 -285 25 -47 29
-156 8 -211 -26 -69 -63 -104 -260 -252 -816 -613 -1271 -997 -1851 -1564
l-142 -138 -203 0 -202 0 24 27 c13 15 92 99 174 188 442 473 766 869 1042
1278 161 238 207 357 208 537 0 105 0 105 -46 200 -54 112 -137 236 -276 415
-301 385 -582 700 -1102 1234 -608 624 -1048 1014 -1577 1397 -298 216 -447
284 -628 284 -160 0 -273 -50 -506 -226 -390 -294 -770 -630 -1178 -1042 -90
-90 -164 -163 -166 -161 -2 2 -8 111 -15 242 l-12 238 72 82 c510 582 847
1002 1157 1437 287 404 325 456 371 503 56 58 100 87 161 104 52 15 147 9 199
-13z m-2221 -205 c65 -19 144 -81 191 -150 l44 -64 -358 -3 c-197 -1 -360 0
-363 2 -7 8 55 91 97 129 48 43 127 85 185 97 49 11 151 5 204 -11z m162 -549
l0 -270 -75 0 -75 0 0 153 c0 178 -8 214 -56 256 -28 25 -43 31 -82 31 -54 0
-102 -25 -129 -67 -15 -23 -19 -54 -21 -200 l-4 -173 -74 0 -74 0 0 270 0 270
295 0 295 0 0 -270z m-257 108 c44 -23 46 -36 47 -210 l0 -168 -85 0 -85 0 0
166 0 166 29 29 c31 31 59 36 94 17z m365 -509 l-3 -70 -398 -2 -397 -2 0 73
0 72 400 0 401 0 -3 -71z m1998 -79 c137 -34 235 -91 557 -324 17 -13 16 -16
-12 -62 -43 -69 -71 -157 -78 -239 l-5 -70 -80 3 c-69 3 -86 0 -133 -23 -106
-51 -166 -147 -166 -265 -1 -120 65 -222 175 -272 50 -23 57 -23 472 -26 l421
-3 5 -72 c8 -118 59 -196 160 -246 l61 -31 321 0 321 1 122 -128 c103 -108
118 -128 100 -131 -58 -7 -68 -13 -65 -35 3 -20 10 -22 80 -27 l77 -5 86 -92
c47 -50 85 -94 85 -97 0 -3 -85 -6 -189 -6 -155 0 -191 -3 -201 -15 -10 -12
-10 -18 0 -30 10 -13 49 -15 235 -15 l222 0 76 -87 77 -88 -314 -3 c-328 -2
-346 -5 -330 -46 5 -14 42 -16 354 -16 l348 0 66 -77 65 -78 -543 -3 c-484 -2
-545 -4 -557 -18 -11 -14 -10 -18 6 -30 16 -12 117 -14 584 -14 l566 -1 63
-79 c34 -43 62 -81 62 -84 0 -3 -188 -7 -417 -8 -400 -3 -418 -4 -421 -22 -2
-10 2 -22 10 -27 7 -5 209 -9 449 -9 l435 0 67 -87 66 -88 -195 -3 c-162 -2
-196 -5 -201 -17 -3 -9 0 -22 7 -30 10 -12 52 -15 223 -17 l211 -3 33 -55 c18
-30 33 -58 33 -62 0 -4 -129 -9 -287 -10 -280 -3 -288 -4 -288 -23 0 -20 8
-20 302 -23 l302 -2 16 -52 c11 -37 13 -71 9 -116 l-7 -65 -131 6 c-159 6
-256 32 -426 113 -157 75 -315 184 -435 300 -301 291 -567 436 -901 495 -143
25 -494 33 -530 12 -28 -16 -48 -66 -40 -98 10 -39 37 -56 127 -82 142 -41
232 -104 281 -195 32 -60 33 -220 1 -289 -27 -60 -86 -125 -136 -151 -111 -56
-48 -53 -1017 -58 l-895 -5 -3 -22 c-2 -16 3 -24 20 -28 13 -3 412 -4 888 -3
806 3 869 5 920 22 183 60 275 162 302 332 35 226 -102 390 -390 464 -39 10
-43 14 -40 38 3 24 8 28 48 33 72 10 378 -9 487 -30 194 -37 369 -111 541
-228 111 -75 176 -129 317 -263 198 -188 457 -335 689 -390 56 -14 117 -20
198 -20 l118 0 -29 -80 c-34 -92 -70 -155 -190 -330 -76 -111 -310 -427 -374
-505 l-25 -29 -73 36 c-41 20 -104 62 -140 92 -70 57 -167 173 -200 238 -11
21 -21 38 -23 38 -1 0 -26 -38 -54 -84 -73 -118 -154 -197 -255 -245 -155 -74
-291 -95 -617 -95 -270 -1 -326 7 -445 64 -120 57 -205 162 -205 254 0 68 -13
70 -45 8 -98 -189 -338 -282 -732 -282 l-152 0 -40 128 c-22 70 -45 145 -51
167 -7 24 -52 91 -110 165 l-97 124 111 47 c107 44 264 121 317 155 24 16 27
15 70 -12 205 -130 518 -213 749 -201 216 12 457 106 633 246 l38 30 62 -50
c185 -150 494 -228 794 -200 201 19 357 74 453 159 l45 39 65 -54 c82 -68 166
-109 259 -125 63 -11 73 -10 88 4 26 26 2 44 -67 51 -106 9 -252 95 -316 186
-16 22 -32 41 -35 41 -4 0 -12 -14 -19 -30 -17 -42 -92 -105 -165 -140 -178
-85 -509 -105 -740 -45 -150 39 -305 124 -379 206 l-37 40 -38 -34 c-98 -89
-298 -196 -441 -237 -107 -31 -322 -38 -445 -15 -176 33 -367 107 -501 193
l-61 40 -26 -28 c-14 -15 -61 -46 -104 -68 -115 -59 -345 -154 -353 -145 -20
23 -353 450 -359 462 -5 9 -63 22 -160 37 l-152 25 -258 193 -258 194 -117
-10 c-64 -6 -119 -9 -122 -6 -4 5 -84 1435 -84 1515 0 27 23 55 176 212 192
198 189 196 275 166 23 -9 58 -27 76 -41 31 -23 36 -24 51 -11 32 28 101 57
137 57 48 0 81 -19 133 -74 70 -75 104 -32 35 45 -77 85 -177 106 -274 55 -39
-20 -55 -24 -65 -15 -7 6 -38 21 -69 33 l-55 23 97 94 c276 266 762 673 977
818 185 125 311 154 482 111z m-2616 -67 c0 -10 -20 -405 -45 -878 -24 -473
-56 -1092 -70 -1375 -31 -628 -28 -600 -63 -600 -52 0 -52 -3 -37 250 18 301
44 784 95 1735 22 418 43 788 46 823 l6 62 34 0 c26 0 34 -4 34 -17z m190
-1434 l0 -1452 -47 6 c-27 4 -90 9 -140 13 -57 4 -93 11 -93 18 0 16 48 952
55 1066 8 141 42 796 65 1275 11 231 23 444 26 473 l5 52 65 0 64 0 0 -1451z
m184 1354 c4 -54 22 -433 41 -843 20 -410 49 -1023 66 -1364 16 -340 29 -620
27 -621 -2 -2 -60 2 -130 7 l-128 11 0 1454 0 1453 59 0 59 0 6 -97z m136 73
c0 -14 34 -653 75 -1420 41 -767 75 -1418 75 -1446 l0 -50 -39 0 c-22 0 -43 4
-46 10 -5 8 -12 113 -30 460 -31 613 -115 2380 -115 2430 l0 40 40 0 c36 0 40
-3 40 -24z m2969 -490 c167 -134 325 -269 449 -384 l104 -95 -60 -19 c-67 -20
-142 -80 -162 -128 l-13 -31 -441 3 c-487 3 -467 1 -535 69 -42 42 -61 80 -68
139 -8 71 12 132 64 190 70 78 163 99 265 60 29 -11 53 -20 53 -20 0 0 1 44 1
98 1 107 23 192 72 269 l26 41 60 -46 c34 -25 117 -91 185 -146z m863 -776
l243 -239 -275 -1 c-155 0 -291 5 -311 10 -54 15 -100 50 -135 102 -65 96 -51
216 35 298 50 49 92 67 158 69 43 1 43 1 285 -239z m-4578 -705 l-16 -278
-102 -121 c-295 -350 -564 -720 -641 -881 -95 -198 -84 -387 32 -578 50 -83
278 -385 410 -542 278 -334 426 -498 683 -759 l278 -281 -220 -3 -220 -2 -82
73 c-511 463 -1372 1139 -1941 1524 -139 94 -195 178 -195 294 0 143 21 169
324 401 655 502 1020 806 1511 1261 104 97 191 175 193 173 1 -2 -5 -128 -14
-281z m-39 -572 c-9 -92 -18 -169 -19 -170 -1 -2 -14 25 -28 60 -26 61 -26 62
-73 69 -26 4 -48 8 -50 10 -2 2 38 52 88 113 50 60 92 104 95 97 2 -6 -4 -87
-13 -179z m-172 -115 c-103 -113 -213 -242 -213 -249 0 -8 413 -512 459 -562
19 -20 51 -14 51 10 0 8 -96 130 -213 271 -117 141 -216 263 -221 270 -9 15
193 248 204 235 4 -4 22 -52 40 -105 31 -95 36 -103 177 -278 80 -99 151 -180
157 -180 6 0 86 23 178 51 156 49 188 65 172 90 -9 16 -38 10 -189 -37 -122
-38 -150 -44 -160 -32 -41 45 -216 270 -213 274 3 2 205 -14 449 -37 327 -30
466 -39 529 -34 l85 6 -80 -56 c-44 -31 -99 -68 -122 -83 -24 -15 -43 -32 -43
-38 0 -21 42 -133 54 -143 7 -6 17 -6 26 -1 12 8 13 16 1 57 -7 26 -14 53 -15
60 -1 12 270 203 288 203 5 0 103 -71 217 -157 l209 -158 -168 -5 -167 -5
-130 -68 c-154 -81 -166 -90 -144 -113 15 -14 30 -9 167 60 l152 76 182 0
c130 0 216 -6 296 -19 62 -10 115 -20 117 -23 2 -2 -31 -32 -75 -66 l-78 -62
-179 0 -178 0 -142 -113 c-106 -83 -142 -117 -140 -132 1 -11 9 -21 18 -23 8
-1 74 45 146 103 l130 105 179 0 179 0 105 84 c58 47 108 81 111 78 4 -4 118
-149 254 -322 136 -173 252 -321 258 -328 8 -10 4 -10 -19 -1 -16 6 -104 37
-195 69 l-166 58 -119 -90 c-65 -50 -120 -92 -122 -93 -6 -5 87 -183 99 -190
6 -4 18 -1 26 7 13 14 10 24 -22 88 -20 40 -33 76 -28 81 4 4 46 37 92 72 76
59 87 64 110 55 14 -5 109 -39 211 -74 102 -36 190 -70 196 -77 6 -7 54 -154
108 -327 53 -173 132 -427 175 -565 43 -137 77 -252 75 -254 -2 -2 -120 65
-264 149 l-260 152 0 186 c0 160 2 186 16 197 14 10 -35 33 -302 139 -175 70
-320 129 -321 130 -2 1 -8 37 -15 79 -9 57 -16 78 -29 82 -9 3 -241 70 -514
150 -273 79 -498 145 -499 147 -1 1 -31 37 -66 78 -35 41 -65 77 -66 78 -2 2
-157 28 -346 58 -189 30 -348 56 -353 58 -6 2 -31 44 -57 93 l-48 90 -167 21
c-93 12 -213 27 -268 33 -55 7 -103 15 -107 18 -4 3 8 38 26 76 51 108 199
325 383 563 59 76 67 82 100 82 l36 0 -20 -22z m-263 -791 l244 -32 117 -215
c77 -141 113 -217 106 -221 -7 -3 -52 -14 -102 -24 -49 -10 -95 -22 -101 -27
-7 -5 -43 -62 -80 -128 -38 -66 -72 -120 -76 -120 -10 0 -186 231 -269 354
-97 143 -121 203 -127 323 -5 103 -1 123 25 122 10 0 128 -15 263 -32z m744
-277 c170 -27 309 -50 310 -52 2 -2 31 -37 66 -78 34 -41 64 -76 65 -77 1 -2
212 -64 470 -138 258 -75 471 -138 474 -140 2 -3 -20 -16 -50 -30 -59 -27 -93
-30 -184 -15 -48 8 -62 7 -74 -5 -27 -27 3 -42 107 -55 l97 -11 85 39 c96 45
92 46 104 -44 l7 -51 285 -113 c156 -62 284 -115 284 -119 0 -3 -50 -39 -110
-80 -61 -41 -110 -80 -110 -87 0 -6 7 -17 15 -24 12 -10 34 2 124 64 60 42
112 76 115 76 3 0 6 -70 6 -156 l0 -157 -37 7 c-21 3 -62 9 -91 12 l-52 7 -97
161 c-53 89 -97 162 -97 163 -1 1 -67 -9 -146 -22 -80 -13 -148 -20 -151 -17
-4 4 -23 52 -44 108 -20 56 -40 106 -43 112 -4 5 -171 58 -372 117 -201 60
-369 111 -375 116 -5 4 -30 53 -55 108 l-44 100 -209 79 -209 79 -131 -27
c-73 -15 -135 -26 -139 -24 -7 5 -118 208 -118 218 0 8 -16 11 324 -44z m233
-246 c98 -36 181 -68 184 -70 4 -2 -11 -52 -32 -111 -29 -80 -47 -116 -72
-138 -18 -16 -63 -58 -100 -92 l-69 -62 108 -103 c107 -103 135 -120 142 -84
3 14 -21 43 -84 101 l-87 81 54 51 c30 28 68 63 86 77 22 19 38 47 54 94 12
37 28 80 34 96 l13 29 39 -84 c22 -46 81 -154 131 -241 l92 -156 0 -134 0
-133 122 -90 c67 -50 128 -94 135 -98 14 -9 43 8 43 24 0 5 -54 49 -120 99
l-120 91 0 122 0 122 -66 115 c-36 63 -74 129 -85 146 l-19 32 257 -75 c142
-42 292 -85 333 -97 l75 -22 47 -119 c26 -66 48 -123 50 -127 2 -4 45 -1 97 8
51 8 98 13 103 12 5 -2 -52 -53 -126 -113 -75 -60 -136 -111 -136 -113 0 -2
68 -109 150 -237 83 -128 150 -236 150 -239 0 -3 -260 -6 -578 -6 l-578 0
-270 273 -269 272 95 5 c89 5 95 6 98 28 3 21 1 22 -90 23 -117 1 -151 3 -165
12 -7 4 -112 125 -233 268 l-222 262 23 41 c13 22 46 81 75 131 l51 89 244 52
c134 29 247 53 251 53 4 1 87 -29 185 -65z m4794 -288 c69 -87 164 -166 256
-214 40 -20 73 -40 73 -44 0 -7 -128 -161 -272 -325 l-89 -102 -52 18 c-116
40 -277 140 -313 196 l-16 25 -47 -38 c-176 -146 -380 -236 -594 -262 -233
-28 -558 59 -802 215 l-51 32 -17 -23 c-24 -32 -117 -83 -283 -153 -211 -91
-176 -112 -263 166 -41 131 -76 245 -78 253 -3 13 19 15 159 16 310 3 534 67
664 191 26 26 49 42 51 36 12 -35 73 -110 117 -143 150 -113 344 -150 693
-131 220 12 334 31 447 72 132 48 235 129 314 247 19 29 38 49 42 45 3 -4 31
-39 61 -77z m-3245 -594 l88 -148 115 -17 c99 -15 124 -23 181 -56 36 -21 164
-96 285 -166 121 -71 222 -130 223 -131 2 -1 1 -12 -3 -23 -6 -21 -9 -21 -494
-21 l-488 0 -152 236 -151 236 22 18 c13 10 79 63 148 119 68 55 127 101 131
101 4 0 46 -67 95 -148z m2951 -31 c40 -27 104 -62 143 -77 39 -15 69 -31 68
-35 -2 -4 -28 -34 -58 -66 -30 -32 -118 -124 -194 -205 l-139 -148 -914 0
-914 0 6 34 c5 25 -4 68 -34 164 -23 72 -41 136 -41 144 0 7 38 28 88 47 118
46 286 125 343 162 l47 30 62 -37 c128 -75 291 -138 442 -171 129 -27 365 -25
482 6 154 40 312 117 431 210 l50 39 30 -24 c17 -14 63 -47 102 -73z m633
-594 l35 -12 3 -917 2 -918 -32 8 c-18 4 -1306 7 -2863 7 -1556 0 -2845 -3
-2863 -7 l-32 -8 2 918 3 917 35 12 c51 17 5659 17 5710 0z m-5810 -1086 c0
-567 3 -838 11 -859 7 -22 24 -37 53 -51 38 -19 62 -21 222 -22 185 0 246 -10
252 -40 7 -38 -29 -39 -794 -37 l-741 3 249 435 c137 239 254 445 260 456 9
19 -23 81 -239 460 -138 242 -255 449 -262 462 l-12 22 501 0 500 0 0 -829z
m6899 807 c-7 -13 -124 -220 -262 -461 l-249 -439 25 -46 c14 -26 131 -231
260 -457 l234 -410 -741 -3 c-765 -2 -801 -1 -794 37 6 30 67 40 250 40 200 1
248 12 273 62 13 24 15 150 15 864 l0 835 500 0 501 0 -12 -22z m-6359 -1658
c0 -49 0 -49 -26 -40 -14 6 -105 10 -202 11 -181 0 -247 11 -247 39 0 33 45
40 263 40 l212 0 0 -50z m3223 37 c-4 -7 -98 -139 -207 -292 -355 -497 -376
-523 -475 -552 -103 -30 -216 3 -292 84 -20 21 -89 117 -154 213 -65 96 -182
262 -261 368 l-144 192 771 0 c625 0 768 -2 762 -13z m2057 0 c14 -7 25 -19
25 -27 0 -28 -66 -39 -247 -39 -97 -1 -188 -5 -202 -11 -26 -9 -26 -9 -26 40
l0 50 213 0 c151 0 219 -4 237 -13z"/>
<path d="M6333 10160 c-71 -16 -161 -86 -150 -115 9 -22 41 -19 63 6 24 28 91
58 127 59 42 0 96 -26 133 -66 l34 -35 55 20 c98 37 182 23 249 -41 41 -40 68
-45 74 -16 4 21 -60 82 -115 109 -52 25 -145 28 -208 7 -37 -12 -41 -12 -65
11 -54 50 -136 76 -197 61z"/>
<path d="M5787 9550 c-90 -23 -216 -111 -204 -143 10 -26 35 -21 75 14 80 71
189 97 267 65 18 -8 55 -34 81 -58 l47 -43 15 23 c22 33 91 78 140 91 51 14
102 3 157 -35 41 -27 68 -28 73 -2 4 19 -63 68 -117 86 -74 26 -156 10 -226
-44 l-46 -34 -32 24 c-73 55 -154 74 -230 56z"/>
<path d="M6192 8969 c-23 -12 -57 -38 -75 -59 -32 -38 -33 -38 -80 -28 -95 20
-214 -29 -272 -112 -15 -22 -25 -46 -21 -55 10 -27 40 -15 71 28 17 23 50 52
75 65 38 20 56 22 110 18 36 -2 76 -7 90 -10 21 -5 30 1 55 37 17 23 50 52 75
65 53 27 91 24 162 -15 71 -39 112 -8 49 37 -74 52 -169 63 -239 29z"/>
<path d="M4584 8415 c-4 -8 -4 -22 0 -30 5 -13 57 -15 413 -13 l408 3 0 25 0
25 -408 3 c-356 2 -408 0 -413 -13z"/>
<path d="M5514 8415 c-4 -8 -4 -22 0 -30 5 -13 138 -15 1118 -15 691 0 1119 4
1128 10 12 7 12 13 4 27 -11 17 -70 18 -1128 21 -986 2 -1117 0 -1122 -13z"/>
<path d="M7980 8415 c-10 -12 -10 -18 0 -30 11 -13 42 -15 199 -13 l186 3 0
25 0 25 -186 3 c-157 2 -188 0 -199 -13z"/>
<path d="M4582 8158 l3 -23 375 0 c368 0 375 0 375 20 0 20 -8 20 -378 23
l-378 2 3 -22z"/>
<path d="M5557 8164 c-13 -13 -7 -42 9 -48 24 -9 397 -7 412 3 8 5 12 17 10
27 -3 18 -17 19 -214 22 -116 1 -213 -1 -217 -4z"/>
<path d="M6220 8160 c-12 -7 -12 -13 -4 -27 11 -17 54 -18 730 -21 395 -1 729
0 742 3 17 4 22 12 20 28 l-3 22 -735 2 c-457 2 -741 -1 -750 -7z"/>
<path d="M8024 8155 c-4 -8 -1 -22 6 -30 18 -22 372 -22 390 0 10 12 10 18 0
30 -19 22 -388 22 -396 0z"/>
<path d="M4625 7916 c-16 -12 -17 -16 -6 -30 12 -15 125 -16 1270 -14 1220 3
1256 4 1259 22 2 10 -2 22 -10 27 -7 5 -571 9 -1254 9 -1044 0 -1243 -2 -1259
-14z"/>
<path d="M7332 7921 c-8 -5 -12 -17 -10 -27 3 -18 22 -19 523 -19 501 0 520 1
523 19 2 10 -2 22 -10 27 -7 5 -238 9 -513 9 -275 0 -506 -4 -513 -9z"/>
<path d="M4619 7694 c-11 -14 -10 -18 6 -30 15 -11 74 -14 291 -14 237 0 275
2 289 16 12 12 13 19 4 30 -9 11 -65 14 -294 14 -247 0 -284 -2 -296 -16z"/>
<path d="M5367 7703 c-13 -12 -7 -41 9 -47 25 -9 1617 -7 1632 3 8 5 12 17 10
27 -3 18 -30 19 -824 22 -451 1 -824 -1 -827 -5z"/>
<path d="M7740 7605 c-14 -17 -7 -45 12 -45 36 0 163 -74 211 -122 84 -84 111
-165 94 -283 -15 -107 -14 -120 8 -120 30 0 48 64 49 175 1 86 -2 101 -28 155
-40 82 -124 162 -217 207 -98 48 -113 52 -129 33z"/>
<path d="M4704 7465 c-4 -8 -4 -22 0 -30 5 -13 59 -15 428 -13 l423 3 0 25 0
25 -423 3 c-369 2 -423 0 -428 -13z"/>
<path d="M5864 7465 c-4 -8 -4 -22 0 -30 5 -13 101 -15 784 -15 681 0 781 2
792 15 10 12 10 18 0 30 -11 13 -111 15 -792 15 -683 0 -779 -2 -784 -15z"/>
<path d="M5137 7233 c-13 -12 -7 -41 9 -47 9 -3 278 -6 599 -6 506 0 584 2
595 15 10 12 10 18 0 30 -11 13 -90 15 -605 15 -325 0 -595 -3 -598 -7z"/>
<path d="M6687 7233 c-13 -12 -7 -41 9 -47 25 -9 1007 -7 1022 3 8 5 12 17 10
27 -3 18 -23 19 -519 22 -283 1 -519 -1 -522 -5z"/>
<path d="M5293 7034 c-3 -8 -1 -20 4 -25 5 -5 272 -8 684 -7 l674 3 3 23 3 22
-681 0 c-609 0 -681 -2 -687 -16z"/>
<path d="M6744 7035 c-3 -8 -3 -19 1 -25 10 -16 991 -14 997 3 14 37 10 37
-498 37 -423 0 -495 -2 -500 -15z"/>
<path d="M6410 6473 c-43 -44 -165 -113 -201 -113 -20 0 -30 -22 -19 -40 12
-19 72 -7 145 29 70 35 171 131 162 155 -11 28 -41 17 -87 -31z"/>
<path d="M7869 6501 c-77 -60 -182 -104 -309 -130 -71 -15 -85 -21 -85 -37 0
-49 179 -15 326 63 48 25 98 56 113 69 46 43 5 75 -45 35z"/>
<path d="M9290 6504 c-23 -27 -99 -66 -173 -89 -57 -17 -72 -26 -72 -41 0 -16
7 -19 46 -18 86 3 259 100 259 145 0 24 -42 26 -60 3z"/>
<path d="M8761 5905 c-31 -43 -122 -115 -188 -149 -35 -17 -45 -52 -18 -62 16
-7 114 50 177 102 58 49 112 120 104 139 -10 28 -42 16 -75 -30z"/>
<path d="M7159 5884 c-86 -64 -240 -134 -294 -134 -13 0 -28 -7 -35 -16 -11
-12 -11 -18 2 -31 24 -23 102 -3 223 57 117 58 182 108 172 133 -9 24 -28 21
-68 -9z"/>
<path d="M6915 5299 c-50 -51 -92 -77 -169 -105 -45 -16 -61 -27 -61 -40 0
-29 68 -23 140 12 72 35 165 121 165 152 0 35 -31 27 -75 -19z"/>
<path d="M8330 5299 c-71 -50 -164 -87 -270 -109 -73 -15 -85 -20 -88 -39 -3
-19 1 -21 40 -21 135 1 418 129 418 190 0 31 -37 23 -100 -21z"/>
<path d="M4210 4295 l0 -135 50 0 50 0 0 -295 0 -295 -50 0 -50 0 0 -135 0
-135 325 0 325 0 0 135 0 135 -55 0 -55 0 0 295 0 295 55 0 55 0 0 135 0 135
-325 0 -325 0 0 -135z"/>
<path d="M4990 4295 l0 -135 45 0 45 0 0 -295 0 -295 -45 0 -45 0 0 -135 0
-135 545 0 545 0 0 180 0 180 -150 0 -150 0 0 -45 0 -45 -130 0 -130 0 0 90 0
90 110 0 110 0 0 120 0 120 -110 0 -110 0 0 85 0 85 130 0 130 0 0 -45 0 -45
150 0 150 0 0 180 0 180 -545 0 -545 0 0 -135z"/>
<path d="M6240 4295 l0 -135 45 0 45 0 0 -295 0 -295 -45 0 -45 0 0 -135 0
-135 545 0 545 0 0 180 0 180 -150 0 -150 0 0 -45 0 -45 -130 0 -130 0 0 90 0
90 115 0 115 0 0 120 0 120 -115 0 -115 0 0 85 0 85 130 0 130 0 0 -45 0 -45
150 0 150 0 0 180 0 180 -545 0 -545 0 0 -135z"/>
<path d="M7500 4295 l0 -135 45 0 45 0 0 -295 0 -295 -45 0 -45 0 0 -135 0
-135 540 0 540 0 0 180 0 180 -150 0 -150 0 0 -45 0 -45 -125 0 -125 0 0 90 0
90 110 0 110 0 0 120 0 120 -110 0 -110 0 0 85 0 85 125 0 125 0 0 -45 0 -45
150 0 150 0 0 180 0 180 -540 0 -540 0 0 -135z"/>
<path d="M1803 1551 c-40 -25 -53 -49 -53 -100 0 -52 37 -96 105 -126 55 -25
80 -48 70 -65 -12 -19 -53 -10 -73 15 -15 19 -29 25 -61 25 l-41 0 0 -65 0
-65 44 0 c24 0 46 5 48 11 3 9 9 9 25 0 55 -29 156 -2 183 50 18 32 6 106 -20
134 -12 13 -53 40 -91 60 -38 20 -69 40 -69 44 0 5 7 14 15 21 12 10 20 9 40
-4 14 -9 25 -21 25 -26 0 -6 23 -10 50 -10 l50 0 0 56 0 55 -62 -1 c-35 -1
-83 1 -108 5 -35 5 -52 2 -77 -14z"/>
<path d="M6985 1556 c-73 -32 -123 -129 -111 -215 15 -112 91 -173 215 -173
91 0 144 29 180 99 17 34 14 40 -33 58 -46 18 -66 14 -66 -11 0 -22 -37 -54
-63 -54 -34 0 -56 29 -63 82 -7 54 10 114 36 128 24 13 65 -2 80 -30 9 -16 21
-20 60 -20 l50 0 0 70 0 70 -50 0 c-27 0 -50 -4 -50 -9 0 -6 -12 -3 -27 5 -35
17 -118 18 -158 0z"/>
<path d="M2110 1480 l0 -80 35 0 c33 0 35 2 35 35 0 28 4 35 20 35 19 0 20 -7
20 -100 0 -82 -3 -100 -15 -100 -11 0 -15 -12 -15 -50 l0 -50 110 0 110 0 0
50 c0 38 -4 50 -15 50 -12 0 -15 18 -15 100 0 93 1 100 20 100 16 0 20 -7 20
-35 0 -33 2 -35 35 -35 l35 0 0 80 0 80 -190 0 -190 0 0 -80z"/>
<path d="M2530 1515 c0 -33 4 -45 15 -45 12 0 15 -17 15 -92 0 -111 21 -168
70 -193 42 -22 147 -22 188 -1 55 28 66 58 71 178 2 84 6 108 17 108 10 0 14
13 14 45 l0 45 -75 0 -75 0 0 -45 c0 -25 5 -45 10 -45 11 0 14 -167 4 -194
-10 -26 -53 -20 -64 10 -13 34 -13 184 0 184 6 0 10 20 10 45 l0 45 -100 0
-100 0 0 -45z"/>
<path d="M2960 1515 c0 -33 4 -45 15 -45 12 0 15 -18 15 -100 0 -82 -3 -100
-15 -100 -11 0 -15 -12 -15 -51 l0 -51 158 4 c120 3 164 8 187 20 143 77 137
281 -10 349 -33 15 -66 19 -187 19 l-148 0 0 -45z m263 -77 c11 -13 17 -37 17
-72 0 -64 -20 -96 -61 -96 l-29 0 0 101 0 101 28 -6 c15 -4 35 -16 45 -28z"/>
<path d="M3460 1515 c0 -33 4 -45 15 -45 12 0 15 -18 15 -100 0 -82 -3 -100
-15 -100 -11 0 -15 -12 -15 -50 l0 -50 190 0 190 0 0 65 0 65 -55 0 c-42 0
-55 -3 -55 -15 0 -11 -11 -15 -40 -15 -38 0 -40 2 -40 30 0 28 3 30 35 30 34
0 35 1 35 40 0 39 -1 40 -35 40 -32 0 -35 2 -35 30 0 28 2 30 40 30 29 0 40
-4 40 -15 0 -12 13 -15 55 -15 l55 0 0 60 0 60 -190 0 -190 0 0 -45z"/>
<path d="M3890 1515 c0 -33 4 -45 15 -45 12 0 15 -18 15 -100 0 -82 -3 -100
-15 -100 -11 0 -15 -12 -15 -50 l0 -50 80 0 80 0 0 50 c0 43 -3 50 -20 50 -18
0 -20 7 -20 61 0 37 4 58 10 54 5 -3 42 -53 82 -110 l72 -105 68 0 68 0 0 150
c0 127 2 150 15 150 11 0 15 12 15 45 l0 45 -80 0 -80 0 0 -45 c0 -33 4 -45
15 -45 11 0 15 -12 15 -52 l0 -51 -28 39 c-16 21 -46 65 -67 97 l-38 57 -93 0
-94 0 0 -45z"/>
<path d="M4380 1480 l0 -80 40 0 c39 0 40 1 40 35 0 28 4 35 20 35 19 0 20 -7
20 -99 0 -91 -2 -99 -21 -104 -17 -5 -20 -12 -17 -49 l3 -43 113 -3 112 -3 0
47 c0 37 -4 47 -20 51 -18 5 -20 14 -20 104 0 92 1 99 20 99 16 0 20 -7 20
-35 0 -34 1 -35 40 -35 l40 0 0 80 0 80 -195 0 -195 0 0 -80z"/>
<path d="M4960 1516 c0 -34 4 -46 15 -46 12 0 15 -18 15 -100 0 -82 -3 -100
-15 -100 -11 0 -15 -12 -15 -51 l0 -51 178 4 c226 5 262 20 262 113 0 35 -26
73 -61 89 -12 5 -12 7 0 12 57 26 66 86 22 136 l-29 33 -186 3 -186 3 0 -45z"/>
<path d="M5450 1515 c0 -33 4 -45 15 -45 12 0 15 -18 15 -100 0 -82 -3 -100
-15 -100 -11 0 -15 -12 -15 -50 l0 -50 105 0 105 0 0 50 c0 38 -4 50 -15 50
-10 0 -15 10 -15 31 0 27 3 30 27 27 23 -2 34 -16 68 -80 l40 -78 73 0 72 0 0
50 c0 41 -3 50 -17 50 -11 0 -28 18 -42 42 -20 36 -21 43 -9 52 39 29 50 104
22 145 -30 43 -71 51 -249 51 l-165 0 0 -45z"/>
<path d="M5990 1515 c0 -33 4 -45 15 -45 20 0 20 -1 -17 -104 -21 -60 -38 -90
-50 -94 -14 -3 -18 -14 -18 -53 l0 -49 80 0 80 0 0 45 c0 35 -4 45 -16 45 -11
0 -14 5 -10 16 3 9 6 20 6 25 0 6 23 9 53 7 45 -3 52 -6 55 -25 2 -16 -2 -23
-12 -23 -12 0 -16 -11 -16 -45 l0 -45 105 0 105 0 0 45 c0 33 -5 47 -19 54
-10 6 -31 47 -50 97 -36 99 -36 104 -16 104 11 0 15 12 15 45 l0 45 -145 0
-145 0 0 -45z"/>
<path d="M6370 1516 c0 -35 4 -45 20 -49 18 -5 20 -14 20 -97 0 -83 -2 -92
-20 -97 -17 -4 -20 -14 -20 -54 l0 -49 80 0 80 0 0 50 c0 38 -4 50 -15 50 -12
0 -15 13 -15 60 0 33 1 60 3 60 2 0 37 -49 78 -110 l74 -109 68 -1 67 0 0 150
c0 143 1 150 20 150 17 0 20 7 20 45 l0 45 -80 0 -80 0 0 -45 c0 -33 4 -45 15
-45 12 0 15 -13 15 -57 l0 -56 -70 101 -71 102 -94 0 -95 0 0 -44z"/>
<path d="M7330 1515 c0 -33 4 -45 15 -45 12 0 15 -18 15 -100 0 -82 -3 -100
-15 -100 -11 0 -15 -12 -15 -50 l0 -50 105 0 105 0 0 45 c0 31 -5 47 -15 51
-9 4 -15 19 -15 35 0 28 2 29 45 29 43 0 45 -1 45 -30 0 -16 -4 -30 -10 -30
-5 0 -10 -22 -10 -50 l0 -50 100 0 100 0 0 50 c0 38 -4 50 -15 50 -12 0 -15
18 -15 100 0 82 3 100 15 100 11 0 15 12 15 45 l0 45 -100 0 -100 0 0 -45 c0
-25 5 -45 10 -45 6 0 10 -13 10 -30 0 -29 -2 -30 -45 -30 -43 0 -45 1 -45 30
0 20 5 30 15 30 11 0 15 12 15 45 l0 45 -105 0 -105 0 0 -45z"/>
<path d="M7970 1515 c0 -38 3 -45 20 -45 19 0 20 -7 20 -100 0 -82 -3 -100
-15 -100 -11 0 -15 -12 -15 -50 l0 -50 75 0 75 0 0 50 c0 38 -4 50 -15 50 -12
0 -15 17 -15 98 1 112 -3 116 70 -81 43 -117 44 -118 74 -115 29 3 32 8 88
153 l57 150 1 -102 c0 -85 -3 -103 -15 -103 -11 0 -15 -12 -15 -50 l0 -50 100
0 100 0 0 50 c0 38 -4 50 -15 50 -12 0 -15 18 -15 100 0 82 3 100 15 100 11 0
15 12 15 45 l0 45 -118 0 -118 0 -24 -66 c-14 -36 -28 -67 -31 -69 -3 -2 -16
27 -29 66 l-24 69 -123 0 -123 0 0 -45z"/>
<path d="M8660 1515 c0 -33 4 -45 15 -45 20 0 20 -1 -17 -104 -21 -60 -38 -90
-50 -94 -14 -3 -18 -14 -18 -53 l0 -49 80 0 80 0 0 45 c0 35 -4 45 -16 45 -11
0 -14 5 -10 16 3 9 6 20 6 25 0 6 23 9 53 7 45 -3 52 -6 55 -25 2 -16 -2 -23
-12 -23 -12 0 -16 -11 -16 -45 l0 -45 105 0 105 0 0 49 c0 39 -4 50 -18 53
-12 4 -29 34 -50 94 -37 103 -37 104 -17 104 11 0 15 12 15 45 l0 45 -145 0
-145 0 0 -45z"/>
<path d="M9040 1516 c0 -35 4 -45 20 -49 18 -5 20 -14 20 -101 0 -89 -1 -96
-20 -96 -17 0 -20 -7 -20 -50 l0 -50 80 0 80 0 0 50 c0 38 -4 50 -15 50 -12 0
-15 13 -14 63 0 56 1 60 14 42 8 -11 43 -61 78 -110 l63 -90 67 -3 67 -3 0
151 c0 127 2 150 15 150 11 0 15 12 15 45 l0 45 -75 0 -75 0 0 -45 c0 -33 4
-45 15 -45 11 0 15 -12 15 -52 -1 -52 -1 -52 -18 -32 -9 12 -41 56 -70 98
l-52 76 -95 0 -95 0 0 -44z"/>
<path d="M9530 1515 c0 -38 3 -45 20 -45 19 0 20 -7 20 -99 0 -90 -2 -99 -20
-104 -16 -4 -20 -14 -20 -51 l0 -46 115 0 115 0 0 50 c0 43 -3 50 -20 50 -19
0 -20 7 -20 100 0 93 1 100 20 100 17 0 20 7 20 45 l0 45 -115 0 -115 0 0 -45z"/>
<path d="M9800 1515 c0 -38 3 -45 20 -45 19 0 20 -7 20 -100 0 -93 -1 -100
-20 -100 -17 0 -20 -7 -20 -50 l0 -50 115 0 115 0 0 50 c0 43 -3 50 -20 50
-15 0 -20 7 -20 25 0 24 3 25 63 25 118 0 174 33 183 107 4 27 -1 47 -16 71
-33 54 -68 62 -255 62 l-165 0 0 -45z"/>
<path d="M10290 1515 c0 -34 4 -45 16 -45 17 0 18 1 -25 -117 -18 -48 -35 -79
-45 -81 -12 -3 -16 -16 -16 -53 l0 -50 77 3 78 3 -3 40 c-2 22 -8 43 -14 46
-6 4 -7 16 -3 28 5 18 14 21 55 21 34 0 50 -4 54 -16 10 -25 7 -34 -9 -34 -11
0 -15 -12 -15 -45 l0 -45 100 0 100 0 0 50 c0 34 -4 50 -13 50 -19 0 -88 194
-70 198 8 2 13 19 13 48 l0 44 -140 0 -140 0 0 -45z"/>
<path d="M10670 1515 c0 -33 4 -45 15 -45 12 0 15 -18 15 -100 0 -82 -3 -100
-15 -100 -11 0 -15 -12 -15 -50 l0 -50 185 0 185 0 0 80 0 80 -45 0 c-43 0
-45 -1 -45 -30 0 -29 -2 -30 -45 -30 l-45 0 0 100 c0 93 1 100 20 100 17 0 20
7 20 45 l0 45 -115 0 -115 0 0 -45z"/>
</g>
</svg>
