<?xml version="1.0" standalone="no"?>
<!DOCTYPE svg PUBLIC "-//W3C//DTD SVG 20010904//EN"
 "http://www.w3.org/TR/2001/REC-SVG-20010904/DTD/svg10.dtd">
<svg version="1.0" xmlns="http://www.w3.org/2000/svg"
 width="1279.000000pt" height="1280.000000pt" viewBox="0 0 1279.000000 1280.000000"
 preserveAspectRatio="xMidYMid meet">
<metadata>
Created by potrace 1.15, written by Peter Selinger 2001-2017
</metadata>
<g transform="translate(0.000000,1280.000000) scale(0.100000,-0.100000)"
fill="#000000" stroke="none">
<path d="M0 6400 l0 -6390 6395 0 6395 0 0 6390 0 6390 -6395 0 -6395 0 0
-6390z m7306 5143 c-3 -76 -11 -249 -17 -386 -7 -136 -9 -250 -6 -254 9 -8
186 -52 213 -53 16 0 24 8 28 28 24 103 42 152 57 152 41 0 39 -42 -5 -178 -5
-15 -3 -23 6 -26 389 -120 665 -232 937 -380 57 -31 104 -56 106 -54 1 2 18
32 38 68 58 104 59 105 85 83 l21 -18 -44 -78 c-25 -44 -45 -82 -45 -85 0 -4
40 -31 88 -61 236 -147 517 -362 698 -535 56 -53 106 -96 110 -96 5 0 38 29
74 65 l66 66 19 -21 c19 -21 18 -21 -50 -90 l-69 -70 80 -82 c188 -195 417
-497 582 -766 l33 -53 67 37 c37 21 75 42 85 48 13 8 20 7 27 -4 20 -31 8 -46
-68 -89 -42 -25 -79 -46 -81 -47 -2 -2 1 -9 6 -16 23 -29 135 -252 192 -381
79 -178 101 -235 172 -452 33 -99 61 -185 64 -192 3 -8 29 -5 92 13 82 23 89
23 101 7 16 -23 15 -32 -5 -41 -10 -4 117 -9 282 -12 l300 -5 3 -38 3 -37
-5153 2 -5153 3 0 35 0 35 285 4 c243 3 278 5 240 15 -34 9 -46 17 -48 34 -5
33 18 36 109 13 46 -11 86 -18 90 -15 4 2 11 19 15 37 14 65 103 325 152 442
92 224 148 342 248 522 l23 42 -24 15 c-13 9 -27 16 -30 16 -3 0 -31 16 -61
35 -48 31 -53 37 -44 55 6 11 16 20 21 20 6 0 46 -20 90 -44 l78 -44 23 36
c168 279 393 574 607 795 l65 67 -69 70 -69 70 22 22 22 22 70 -69 69 -69 73
70 c199 190 467 397 713 549 61 38 111 69 113 70 2 2 -11 27 -28 56 -61 108
-66 119 -50 129 28 18 39 10 85 -67 57 -94 52 -88 67 -75 15 12 281 146 383
192 137 63 341 138 543 200 69 21 102 36 102 46 0 8 -9 48 -20 90 -11 41 -18
79 -15 85 4 5 16 9 28 9 20 0 25 -11 46 -90 13 -49 29 -90 35 -90 6 0 27 4 46
10 46 13 307 66 395 80 150 23 337 41 502 47 l172 6 3 96 3 96 30 0 30 0 3
-96 3 -96 157 -6 c141 -5 429 -31 459 -42 6 -2 16 2 21 8 5 7 42 113 81 237
40 124 83 257 95 295 13 39 31 98 42 132 16 54 22 63 43 63 l23 0 -6 -137z
m-927 -14 c33 -12 61 -52 61 -88 0 -12 -13 -35 -29 -53 -22 -25 -37 -32 -64
-32 -94 0 -127 133 -43 170 38 16 36 16 75 3z m-1271 -195 c30 -34 29 -85 -2
-121 -52 -61 -156 -21 -156 60 0 87 101 126 158 61z m2610 0 c30 -34 29 -85
-2 -121 -52 -61 -156 -21 -156 60 0 87 101 126 158 61z m-3842 -489 c74 -51
37 -165 -53 -165 -50 0 -84 35 -85 89 0 37 5 49 26 68 31 26 81 30 112 8z
m5055 -14 c20 -20 29 -39 29 -61 0 -43 -47 -90 -90 -90 -68 0 -112 63 -86 125
27 63 97 75 147 26z m-6092 -797 c65 -54 25 -154 -61 -154 -85 0 -122 100 -57
154 17 15 43 26 59 26 16 0 42 -11 59 -26z m7114 15 c51 -23 63 -104 22 -144
-27 -28 -88 -34 -116 -12 -47 36 -51 97 -10 138 31 31 64 36 104 18z m-7926
-1049 c57 -34 57 -116 0 -151 -43 -26 -70 -24 -106 7 -50 42 -41 117 17 148
36 20 51 20 89 -4z m8751 -16 c34 -39 30 -95 -9 -128 -45 -38 -91 -32 -131 18
-48 59 15 156 92 140 14 -2 35 -16 48 -30z m-9259 -1199 c82 -42 48 -169 -46
-169 -27 0 -42 7 -64 32 -43 48 -33 108 22 138 31 17 54 17 88 -1z m9748 -5
c59 -36 54 -113 -12 -156 -29 -19 -60 -14 -98 17 -22 16 -27 29 -27 62 1 44
12 66 45 85 29 17 56 14 92 -8z m-4413 -730 c38 -6 114 -26 169 -45 55 -19
110 -35 122 -35 23 0 51 25 69 62 6 13 19 24 29 26 16 3 17 -14 17 -222 0
-209 -1 -226 -17 -226 -12 0 -30 26 -57 83 -93 197 -287 310 -475 277 -93 -16
-139 -39 -193 -97 -78 -85 -108 -160 -133 -332 -19 -131 -19 -186 0 -309 25
-164 57 -244 126 -313 76 -76 207 -111 331 -89 126 22 118 9 118 185 0 84 -5
165 -10 182 -14 37 -57 63 -109 63 -34 0 -41 3 -41 20 0 20 7 20 295 20 162 0
298 0 303 0 4 0 7 -8 7 -17 0 -12 -11 -19 -35 -23 -95 -16 -104 -36 -108 -241
-4 -189 6 -169 -104 -208 -179 -64 -485 -84 -636 -41 -215 60 -389 212 -451
391 -140 408 122 832 549 889 82 11 157 11 234 0z m-3524 -10 c0 -8 93 -225
170 -395 10 -22 53 -119 95 -215 42 -96 94 -214 116 -263 21 -48 39 -90 39
-93 0 -3 21 -48 47 -100 50 -102 97 -154 139 -154 28 0 44 -28 23 -41 -8 -5
-146 -9 -306 -9 -281 0 -293 1 -293 19 0 22 19 31 64 31 40 0 76 25 76 53 0
13 -22 74 -48 137 l-49 115 -199 3 c-109 1 -208 0 -220 -2 -23 -6 -79 -132
-90 -203 -5 -36 -3 -45 19 -67 14 -13 42 -27 63 -31 79 -13 85 -15 82 -33 -3
-15 -24 -17 -207 -20 -113 -1 -208 1 -213 6 -16 16 3 39 42 51 52 15 89 62
150 189 28 56 50 104 50 106 0 3 15 37 34 78 18 40 50 111 71 158 21 47 60
135 87 195 28 61 62 137 77 170 15 33 54 120 87 192 43 97 64 133 77 133 9 0
17 -4 17 -10z m4884 -95 c24 -55 55 -126 70 -158 14 -31 37 -85 51 -118 14
-33 38 -88 54 -122 16 -34 61 -136 101 -227 39 -91 79 -181 87 -200 47 -107
125 -259 138 -270 8 -7 32 -18 52 -25 26 -9 38 -19 38 -32 0 -17 -16 -18 -298
-21 -262 -2 -298 0 -303 13 -9 22 -3 25 62 34 95 13 98 30 37 181 -58 143 -30
130 -272 130 -155 0 -211 -3 -219 -12 -6 -7 -24 -48 -41 -91 -53 -133 -37
-190 56 -202 67 -9 75 -13 71 -32 -3 -16 -21 -18 -208 -18 -184 0 -205 2 -208
17 -2 11 10 22 40 36 81 35 114 89 265 432 30 69 66 148 78 175 13 28 56 122
95 210 39 88 92 204 116 258 25 55 49 110 55 124 16 44 39 22 83 -82z m-6391
-82 c73 -93 204 -258 291 -368 88 -110 165 -207 173 -215 12 -13 14 27 11 295
-3 274 -5 314 -21 342 -20 38 -54 58 -114 68 -33 5 -43 11 -43 26 0 19 8 19
207 17 187 -3 208 -5 211 -20 2 -12 -5 -19 -25 -23 -71 -16 -98 -31 -115 -65
-17 -32 -18 -82 -18 -601 0 -509 -2 -567 -16 -573 -9 -3 -19 -4 -24 -1 -4 2
-53 61 -109 130 -56 69 -151 187 -213 263 -62 75 -148 182 -193 237 -45 55
-128 158 -186 228 -57 71 -112 139 -121 150 -17 21 -18 2 -17 -398 0 -375 2
-424 17 -454 23 -47 64 -74 120 -81 39 -4 47 -9 47 -25 0 -19 -8 -20 -218 -23
-193 -2 -218 -1 -224 14 -7 20 13 34 52 34 41 0 90 32 112 72 16 30 18 72 21
487 2 250 1 465 -2 478 -13 51 -90 116 -151 127 -34 6 -39 11 -32 31 6 13 37
15 226 15 l221 0 133 -167z m2575 146 c2 -12 -8 -17 -46 -22 -74 -9 -102 -25
-102 -59 0 -25 245 -620 300 -727 l17 -35 32 68 c17 37 31 69 31 71 0 2 13 32
29 67 16 35 57 126 91 203 34 77 68 154 75 170 56 124 60 171 15 208 -18 16
-48 28 -80 32 -40 6 -50 11 -50 26 0 19 8 19 208 17 234 -3 246 -8 155 -62
-28 -17 -61 -43 -72 -57 -20 -26 -90 -162 -131 -254 -12 -27 -55 -122 -95
-210 -97 -213 -100 -220 -200 -444 -113 -255 -112 -253 -136 -249 -15 2 -30
26 -58 93 -21 50 -50 117 -65 150 -15 33 -52 118 -83 190 -30 71 -61 144 -68
160 -45 100 -73 163 -118 270 -79 188 -136 308 -159 333 -12 12 -39 27 -60 32
-35 10 -48 27 -31 43 4 4 140 6 302 5 262 -3 296 -5 299 -19z m1480 0 c2 -13
-9 -17 -52 -22 -69 -7 -103 -29 -116 -76 -6 -22 -10 -222 -10 -514 0 -514 1
-528 52 -560 12 -8 45 -18 72 -21 55 -6 61 -9 53 -31 -6 -13 -47 -15 -327 -15
-280 0 -321 2 -327 15 -8 22 -2 26 62 34 115 16 118 32 109 646 -5 370 -9 454
-21 473 -18 29 -70 52 -118 52 -28 0 -35 4 -35 20 0 20 5 20 327 18 292 -3
328 -5 331 -19z m3902 -2 c84 -23 127 -44 171 -84 55 -50 86 -106 100 -185 27
-148 -41 -277 -181 -342 -30 -14 -61 -26 -69 -26 -7 0 -11 -6 -8 -13 7 -18
334 -478 356 -500 10 -10 35 -24 57 -32 26 -9 39 -19 39 -32 0 -17 -13 -18
-190 -20 -104 -2 -195 0 -201 5 -6 4 -55 70 -109 147 -308 436 -288 410 -331
410 l-39 0 0 -210 c0 -115 3 -222 8 -237 10 -37 50 -62 111 -68 43 -4 51 -8
51 -25 0 -20 -7 -20 -320 -20 -313 0 -320 0 -320 20 0 17 9 21 60 26 47 6 64
12 82 33 l23 27 0 520 0 521 -28 28 c-22 21 -42 30 -85 35 -53 7 -69 19 -50
39 5 4 190 6 413 3 322 -3 416 -7 460 -20z m1575 -167 c0 -166 -2 -185 -17
-188 -13 -3 -22 12 -38 66 -53 176 -126 221 -367 230 l-143 5 0 -253 0 -253
54 6 c105 11 160 72 192 217 13 57 20 70 35 70 19 0 19 -11 17 -327 -3 -290
-5 -328 -19 -331 -12 -2 -19 12 -28 55 -34 153 -106 233 -211 233 l-42 0 4
-235 c3 -229 4 -235 26 -257 19 -20 35 -24 107 -27 244 -10 391 76 462 269 15
40 26 55 39 55 23 0 22 -3 -8 -225 -11 -85 -25 -161 -31 -167 -7 -10 -127 -13
-539 -13 -475 0 -529 2 -535 16 -8 22 14 34 64 34 30 0 50 7 70 24 l28 24 3
518 c2 359 -1 527 -8 545 -13 32 -47 48 -112 56 -38 5 -48 10 -48 24 0 19 18
19 523 17 l522 -3 0 -185z m193 -1587 l-3 -38 -330 -4 c-279 -3 -324 -5 -290
-15 29 -9 41 -19 43 -34 5 -33 -17 -35 -107 -12 -82 21 -101 20 -101 -4 0 -23
-97 -308 -154 -452 -58 -148 -155 -356 -226 -483 -22 -41 -39 -80 -36 -87 2
-6 39 -31 80 -54 42 -23 76 -45 76 -49 0 -4 -7 -16 -15 -27 -16 -21 -6 -25
-127 44 l-56 32 -38 -62 c-154 -254 -388 -559 -593 -770 l-65 -68 69 -70 69
-70 -20 -21 -21 -21 -70 71 -70 70 -29 -31 c-37 -39 -227 -206 -324 -284 -110
-90 -282 -211 -422 -299 -68 -43 -124 -79 -126 -80 -1 -1 19 -39 44 -84 38
-67 44 -84 34 -96 -7 -8 -18 -15 -25 -15 -12 0 -85 112 -85 129 0 5 -6 13 -13
19 -10 9 -58 -11 -198 -81 -269 -136 -429 -201 -696 -287 -90 -28 -163 -57
-163 -64 0 -6 9 -45 20 -85 12 -41 18 -80 16 -88 -9 -23 -49 -11 -57 17 -4 14
-15 53 -25 88 -10 34 -22 62 -28 62 -9 0 -106 -22 -176 -40 -161 -41 -537 -88
-790 -98 l-155 -7 -1 -95 c-2 -95 -2 -95 -28 -98 l-26 -3 0 99 0 99 -152 6
c-145 6 -388 29 -461 42 l-34 7 -41 -124 c-22 -67 -70 -217 -107 -333 -87
-275 -89 -280 -111 -280 -27 0 -28 30 -10 357 20 361 20 417 1 424 -8 3 -58
16 -112 29 l-98 22 -12 -26 c-7 -14 -17 -49 -23 -77 -13 -63 -30 -87 -53 -78
-21 8 -22 47 -3 102 34 96 45 86 -169 157 -240 79 -462 172 -684 286 -96 49
-175 88 -176 87 -1 -2 -22 -38 -46 -81 -34 -61 -48 -77 -64 -75 -33 5 -29 34
14 109 23 39 41 74 41 78 0 4 -46 36 -102 71 -213 132 -465 325 -670 513
l-126 116 -67 -71 -67 -70 -21 21 -21 21 68 69 69 70 -73 78 c-86 92 -240 275
-326 388 -65 85 -225 324 -264 394 -13 22 -28 41 -32 41 -5 0 -44 -20 -86 -45
l-77 -46 -17 22 c-22 26 -18 34 35 61 23 11 59 31 79 44 l36 23 -84 165 c-134
261 -236 515 -319 791 -15 50 -28 91 -29 92 -2 2 -36 -6 -77 -17 -102 -27
-119 -26 -119 5 0 14 6 26 13 27 6 1 -100 5 -238 8 l-250 5 -3 38 -3 37 5156
0 5156 0 -3 -37z m-10008 -98 c67 -67 -14 -181 -102 -144 -30 12 -58 55 -58
86 1 27 24 64 51 79 32 19 78 9 109 -21z m9719 21 c27 -14 51 -53 51 -82 0
-28 -28 -70 -55 -82 -39 -18 -60 -15 -94 14 -26 21 -31 33 -31 69 0 36 5 48
31 69 35 29 58 32 98 12z m-9218 -1235 c35 -36 38 -77 8 -115 -31 -39 -63 -49
-104 -32 -39 17 -55 42 -55 88 1 81 93 117 151 59z m8741 -1 c20 -25 24 -81 7
-112 -6 -11 -26 -26 -44 -34 -41 -17 -73 -7 -104 32 -30 39 -27 79 9 116 27
27 36 30 73 25 26 -4 48 -14 59 -27z m-7967 -1024 c59 -25 74 -93 31 -143 -19
-22 -32 -28 -66 -28 -98 0 -126 131 -37 170 40 18 32 17 72 1z m7130 0 c38
-16 55 -42 55 -85 0 -79 -105 -118 -156 -58 -50 58 -17 138 64 156 1 1 18 -5
37 -13z m-6060 -820 c33 -33 40 -67 20 -105 -27 -54 -110 -66 -149 -22 -26 29
-24 97 5 127 31 33 91 33 124 0z m5049 -7 c35 -41 34 -83 -3 -120 -71 -71
-185 4 -147 96 17 40 40 54 88 55 28 0 42 -7 62 -31z m-3826 -505 c30 -35 30
-87 -3 -119 -54 -55 -155 -18 -155 57 0 88 100 127 158 62z m2610 0 c51 -58
12 -144 -66 -144 -74 0 -118 79 -76 138 34 48 102 51 142 6z m-1329 -148 c27
-14 51 -53 51 -82 0 -30 -34 -74 -66 -84 -100 -33 -166 107 -76 162 33 21 55
22 91 4z"/>
<path d="M7210 11108 c-18 -101 -36 -203 -40 -228 -7 -46 -43 -244 -80 -445
-12 -60 -25 -135 -30 -165 -8 -47 -49 -276 -80 -445 -30 -167 -43 -239 -55
-310 -7 -44 -21 -120 -30 -170 -16 -86 -24 -131 -44 -247 -5 -29 -19 -107 -31
-173 -12 -66 -25 -142 -30 -170 -5 -27 -16 -90 -25 -140 -9 -49 -20 -112 -25
-140 -5 -27 -23 -126 -40 -220 -17 -93 -35 -192 -40 -220 -5 -27 -18 -104 -30
-170 -12 -66 -25 -142 -30 -170 -4 -27 -11 -62 -15 -77 l-7 -28 255 0 c223 0
256 2 261 16 3 9 6 67 6 131 0 63 6 239 14 392 8 152 20 404 26 561 10 268 19
485 55 1285 8 182 19 449 25 595 6 146 15 366 21 489 6 122 8 225 6 227 -2 2
-19 -78 -37 -178z"/>
<path d="M6050 10923 c-144 -6 -411 -41 -575 -74 -105 -21 -256 -57 -261 -62
-3 -3 16 -79 21 -85 1 -1 41 7 89 18 136 31 338 67 480 85 107 13 405 34 494
35 19 0 22 5 22 45 l0 45 -102 -2 c-57 -1 -132 -3 -168 -5z"/>
<path d="M6390 10888 l0 -46 98 -6 c53 -3 158 -11 232 -17 74 -6 164 -13 200
-16 l65 -5 12 39 c6 21 9 41 5 44 -14 13 -275 39 -442 46 l-170 6 0 -45z"/>
<path d="M7277 10796 c-3 -23 -2 -45 3 -50 8 -8 153 -45 181 -46 11 0 19 11
23 33 3 17 7 36 8 41 3 10 -14 16 -138 46 l-72 17 -5 -41z"/>
<path d="M5106 10763 c-57 -15 -327 -107 -431 -148 -118 -46 -502 -230 -539
-257 -17 -14 -17 -16 -2 -46 9 -17 20 -33 25 -37 6 -3 65 24 133 59 134 70
355 170 483 218 110 42 309 106 351 114 43 8 47 15 39 64 -7 41 -14 44 -59 33z"/>
<path d="M7542 10719 c-7 -30 -7 -41 1 -44 286 -82 576 -198 826 -326 134 -69
176 -87 183 -77 5 7 15 25 23 40 17 31 23 27 -180 130 -239 121 -392 184 -665
274 -169 55 -175 56 -188 3z"/>
<path d="M5890 10660 c-198 -23 -279 -37 -506 -85 -89 -18 -104 -24 -104 -39
0 -11 17 -73 60 -231 12 -44 26 -95 30 -113 11 -45 14 -47 57 -34 156 46 504
95 776 108 l117 6 0 204 0 204 -137 -1 c-76 -1 -208 -9 -293 -19z"/>
<path d="M6390 10476 l0 -204 95 -6 c52 -3 139 -9 193 -13 53 -4 103 -8 111
-8 9 0 25 30 42 80 44 130 101 316 97 319 -9 8 -346 36 -435 36 l-103 0 0
-204z"/>
<path d="M7266 10572 c-2 -4 -8 -97 -12 -206 -8 -216 -8 -216 48 -216 22 0 29
6 34 28 3 15 12 50 20 77 25 90 62 229 68 261 l7 31 -70 16 c-78 19 -88 20
-95 9z"/>
<path d="M5060 10487 c-239 -76 -409 -145 -646 -264 -200 -100 -191 -68 -73
-270 55 -95 105 -173 110 -173 5 0 75 33 156 74 205 103 392 178 611 247 56
17 102 36 102 41 0 4 -9 43 -21 86 -11 42 -27 102 -35 132 -36 137 -47 170
-58 170 -6 -1 -72 -20 -146 -43z"/>
<path d="M7486 10506 c-7 -24 -60 -222 -83 -309 -8 -33 -11 -62 -7 -67 5 -4
74 -29 154 -55 183 -59 415 -157 575 -240 68 -36 128 -65 132 -65 4 0 15 12
24 28 8 15 52 91 97 168 45 78 82 145 82 150 0 12 -36 32 -220 125 -215 108
-500 219 -702 274 -44 12 -47 12 -52 -9z"/>
<path d="M3972 10260 c-241 -145 -486 -332 -714 -545 l-88 -81 35 -34 35 -34
68 65 c113 110 265 237 422 353 98 73 313 214 344 225 14 6 26 18 26 27 0 17
-31 74 -40 74 -3 0 -42 -22 -88 -50z"/>
<path d="M8633 10288 c-31 -49 -35 -63 -18 -73 245 -146 550 -377 746 -563
l100 -95 36 35 35 35 -129 116 c-140 126 -255 221 -378 312 -91 68 -363 245
-376 245 -4 0 -11 -6 -16 -12z"/>
<path d="M6070 10199 c-778 -55 -1551 -366 -2155 -868 -140 -116 -423 -404
-530 -539 -198 -248 -335 -465 -464 -734 -62 -128 -191 -442 -191 -464 0 -2
265 -4 589 -4 l590 0 36 71 c150 294 394 596 663 821 39 33 72 65 72 70 0 9
-204 413 -316 625 -30 56 -54 109 -54 118 0 22 31 31 44 13 6 -9 57 -65 112
-124 55 -60 156 -170 224 -244 190 -207 213 -230 223 -230 5 0 35 15 66 34
167 102 430 213 638 271 213 58 397 86 636 94 l188 6 19 55 c18 58 45 139 180
560 45 140 95 295 111 344 16 49 29 95 29 101 0 26 -458 42 -710 24z"/>
<path d="M4065 10025 c-265 -169 -427 -295 -646 -501 l-66 -62 144 -146 144
-145 131 115 c183 161 326 268 510 385 54 33 100 64 103 69 3 4 -38 81 -90
171 -52 89 -95 166 -95 170 0 24 -29 12 -135 -56z"/>
<path d="M7246 10083 c-2 -10 -10 -142 -16 -293 -6 -151 -15 -361 -20 -466
-14 -274 -13 -354 4 -354 23 0 233 -88 348 -145 105 -53 290 -163 358 -214
180 -133 377 -316 504 -468 l68 -82 42 21 c22 11 189 97 369 190 181 93 335
167 343 164 25 -10 15 -32 -34 -77 -26 -24 -101 -93 -167 -154 -157 -144 -235
-216 -323 -296 -39 -36 -72 -68 -72 -71 0 -3 22 -43 49 -90 26 -46 56 -101 66
-121 l17 -37 589 0 c324 0 589 1 589 3 0 15 -78 220 -135 352 -45 105 -158
319 -250 473 -161 270 -486 645 -768 885 -411 351 -892 608 -1426 762 -67 19
-124 35 -126 35 -2 0 -6 -8 -9 -17z"/>
<path d="M8464 9993 c-32 -54 -77 -131 -101 -171 -24 -40 -43 -78 -43 -86 0
-7 19 -23 43 -36 146 -82 399 -273 586 -440 l113 -103 144 144 c79 79 144 146
144 150 0 10 -242 223 -365 320 -106 85 -322 235 -427 298 l-37 22 -57 -98z"/>
<path d="M3016 9474 c-174 -193 -403 -492 -508 -664 -32 -52 -58 -99 -58 -105
0 -5 17 -19 37 -31 l37 -21 77 124 c154 246 334 477 528 675 l65 68 -29 30
c-16 16 -34 30 -41 30 -7 0 -56 -48 -108 -106z"/>
<path d="M9535 9540 l-28 -29 66 -68 c168 -175 374 -439 516 -665 46 -73 85
-134 86 -136 6 -7 75 41 75 53 0 22 -253 394 -350 515 -123 153 -310 360 -324
360 -7 0 -25 -13 -41 -30z"/>
<path d="M3223 9332 c-111 -119 -252 -291 -341 -415 -94 -131 -227 -336 -221
-341 2 -2 49 -29 104 -61 55 -32 134 -78 175 -103 67 -40 76 -43 85 -27 89
146 306 446 387 535 13 14 58 64 100 111 l77 86 -146 146 c-80 81 -146 147
-147 146 0 -1 -33 -35 -73 -77z"/>
<path d="M9257 9252 l-148 -148 27 -24 c35 -33 208 -237 280 -330 32 -41 100
-138 151 -215 51 -77 98 -149 106 -159 13 -19 21 -16 174 73 88 50 168 97 177
104 15 11 9 23 -52 122 -148 238 -292 424 -500 650 l-68 74 -147 -147z"/>
<path d="M6045 9035 c-304 -40 -648 -141 -890 -262 -74 -38 -195 -112 -195
-120 0 -12 105 -123 117 -123 7 0 46 18 85 41 297 168 684 279 1029 294 74 4
143 8 155 10 15 3 26 22 44 77 13 40 25 79 28 86 6 16 -236 15 -373 -3z"/>
<path d="M4661 8863 c57 -84 160 -232 228 -330 113 -161 350 -501 494 -708 31
-44 80 -115 108 -157 l52 -78 159 0 c153 0 159 1 146 19 -7 10 -87 99 -178
197 -91 98 -362 393 -601 654 -240 261 -453 493 -473 515 -23 24 3 -20 65
-112z"/>
<path d="M7196 8903 c-3 -4 -6 -45 -6 -92 l0 -86 73 -29 c174 -69 416 -204
564 -316 118 -89 271 -230 360 -332 47 -54 87 -98 90 -98 2 0 37 18 78 41 47
26 73 45 68 52 -10 19 -143 166 -203 227 -267 270 -590 478 -956 616 -34 13
-64 20 -68 17z"/>
<path d="M6090 8694 c-295 -35 -574 -122 -834 -260 l-68 -36 30 -32 c16 -17
182 -197 368 -401 186 -203 345 -370 352 -370 9 0 24 28 39 75 13 41 47 149
77 240 29 91 77 239 106 330 29 91 75 232 102 313 26 82 48 151 48 153 0 8
-104 2 -220 -12z"/>
<path d="M2383 8598 c-41 -66 -185 -368 -243 -512 -46 -116 -160 -447 -160
-467 0 -11 78 -31 90 -24 6 3 10 12 10 20 0 22 93 299 145 430 56 141 178 400
229 484 20 32 36 61 36 65 0 7 -61 46 -72 46 -4 0 -20 -19 -35 -42z"/>
<path d="M10245 8609 c-16 -10 -30 -22 -30 -26 0 -5 43 -93 96 -198 108 -216
197 -434 262 -645 l45 -145 47 -3 47 -3 -7 38 c-10 57 -96 311 -156 463 -57
146 -248 533 -264 536 -5 1 -23 -6 -40 -17z"/>
<path d="M7176 8534 c-3 -9 -6 -66 -6 -127 0 -62 -7 -229 -15 -372 -8 -143
-15 -302 -15 -352 l0 -93 217 0 216 0 266 136 c146 75 270 140 275 145 14 13
-264 285 -380 371 -95 70 -203 140 -315 202 -42 23 -224 106 -233 106 -2 0 -7
-7 -10 -16z"/>
<path d="M2613 8501 c-18 -28 -126 -244 -163 -326 -83 -182 -194 -474 -205
-542 l-7 -43 215 0 214 0 13 43 c37 116 131 341 211 501 49 99 86 183 82 187
-11 10 -314 186 -333 194 -9 3 -20 -3 -27 -14z"/>
<path d="M10015 8476 c-22 -13 -97 -56 -165 -95 -69 -40 -126 -74 -129 -76 -2
-2 35 -82 82 -177 80 -160 155 -339 202 -480 l19 -58 218 0 c120 0 218 2 218
4 0 14 -93 279 -142 402 -73 186 -228 498 -248 501 -8 1 -33 -8 -55 -21z"/>
<path d="M4635 8421 c-245 -208 -462 -474 -614 -753 l-43 -78 100 0 99 0 53
88 c129 213 310 428 498 591 34 30 62 60 62 68 0 10 -57 125 -74 150 -1 1 -38
-28 -81 -66z"/>
<path d="M8910 8160 c-29 -21 -306 -214 -595 -415 -110 -76 -204 -142 -210
-147 -5 -4 39 -8 97 -8 l105 0 254 233 c352 321 430 397 349 337z"/>
<path d="M4754 8068 c-125 -121 -246 -264 -327 -386 l-58 -87 397 -3 c218 -1
399 0 402 3 4 4 -56 127 -216 435 -38 74 -75 136 -81 138 -6 2 -58 -43 -117
-100z"/>
<path d="M8530 7732 l-63 -57 22 -43 21 -42 100 0 c55 0 100 2 100 4 0 8 -102
186 -109 190 -4 3 -36 -21 -71 -52z"/>
<path d="M3102 6425 c-45 -101 -85 -191 -88 -200 -5 -13 16 -15 170 -15 97 0
176 2 176 4 0 9 -161 381 -168 388 -5 5 -45 -75 -90 -177z"/>
<path d="M8003 6546 c-121 -265 -147 -325 -141 -332 3 -2 82 -3 176 -2 l170 3
-38 90 c-20 50 -47 113 -60 140 -13 28 -35 77 -49 111 l-26 60 -32 -70z"/>
<path d="M9377 6943 c-13 -12 -8 -511 4 -519 17 -10 156 -5 206 8 58 14 117
68 140 126 21 56 23 174 4 242 -17 60 -82 123 -144 138 -49 13 -199 16 -210 5z"/>
<path d="M2008 5213 c-16 -2 -28 -10 -28 -16 0 -10 40 -142 80 -267 19 -60 74
-202 122 -314 50 -118 201 -423 217 -439 7 -7 81 29 81 39 0 2 -33 68 -74 147
-97 185 -204 441 -272 646 -30 91 -54 171 -54 178 0 11 -33 36 -42 32 -2 -1
-15 -4 -30 -6z"/>
<path d="M2246 5163 c65 -216 166 -468 272 -678 94 -187 93 -185 103 -185 7 0
337 185 348 196 3 2 -37 88 -87 192 -96 198 -141 304 -186 440 l-28 82 -218 0
-218 0 14 -47z"/>
<path d="M2734 5193 c4 -9 30 -78 58 -153 226 -606 655 -1194 1172 -1607 132
-105 389 -281 501 -343 202 -111 404 -205 575 -267 105 -38 401 -125 406 -120
2 2 8 133 14 293 6 159 15 361 20 449 5 88 10 210 10 270 l0 110 -93 34 c-418
153 -815 433 -1119 788 l-80 93 -287 -147 c-453 -232 -459 -235 -470 -228 -6
3 -11 12 -11 20 0 7 136 138 303 291 166 152 303 281 305 285 2 5 -12 35 -31
66 -19 32 -49 86 -66 121 l-31 62 -591 0 c-553 0 -591 -1 -585 -17z"/>
<path d="M3996 5178 c9 -18 35 -63 56 -101 l40 -67 60 52 c33 28 62 57 65 63
2 7 -6 29 -17 49 l-22 36 -99 0 -100 0 17 -32z"/>
<path d="M4308 5143 c-40 -36 -125 -114 -188 -172 -63 -58 -140 -128 -170
-156 -30 -27 -57 -52 -60 -55 -3 -3 -35 -33 -72 -67 -36 -35 -64 -63 -61 -63
2 0 39 24 82 54 273 189 352 244 403 280 31 23 105 74 165 115 59 41 126 87
147 103 l40 28 -106 0 -106 0 -74 -67z"/>
<path d="M5065 5186 c-22 -12 -139 -73 -260 -135 -121 -61 -224 -116 -228
-120 -5 -5 54 -71 130 -148 134 -135 289 -260 436 -351 69 -44 250 -135 324
-165 l41 -16 6 72 c7 92 24 457 32 700 l6 187 -223 0 c-215 -1 -226 -2 -264
-24z"/>
<path d="M5596 5138 c-3 -40 -8 -140 -11 -223 -7 -200 -22 -545 -40 -960 -20
-466 -43 -980 -55 -1285 -6 -140 -15 -358 -21 -485 -17 -389 -28 -679 -25
-682 2 -3 23 108 46 252 5 28 16 88 25 135 9 47 20 110 25 140 5 30 23 132 40
225 17 94 35 195 40 225 14 85 40 223 45 240 2 8 6 33 10 55 3 22 15 92 27
155 11 63 24 135 28 160 7 44 47 265 105 585 9 50 22 126 30 170 7 44 21 118
30 165 9 47 20 110 25 140 9 56 27 159 55 310 9 47 20 110 25 140 5 30 16 93
25 140 9 47 20 110 25 140 5 30 19 107 30 170 11 63 23 125 25 138 l4 22 -253
0 -254 0 -6 -72z"/>
<path d="M6726 5168 c-8 -24 -34 -101 -57 -173 -22 -71 -51 -161 -64 -200 -13
-38 -49 -151 -80 -250 -32 -99 -75 -233 -96 -297 -22 -65 -39 -127 -39 -138 0
-23 -15 -23 220 1 257 27 497 97 748 219 l144 70 -22 27 c-12 16 -45 53 -73
83 -29 31 -74 80 -102 110 -27 31 -100 109 -161 175 -61 66 -170 185 -243 265
-72 80 -138 146 -145 148 -9 2 -20 -14 -30 -40z"/>
<path d="M6860 5173 c18 -21 56 -63 84 -93 28 -30 177 -192 331 -360 154 -168
300 -327 325 -354 25 -27 50 -54 55 -60 15 -16 210 -231 275 -301 30 -33 86
-91 124 -130 80 -82 83 -88 -121 205 -71 102 -207 298 -303 435 -95 138 -217
312 -269 387 -53 76 -123 176 -155 223 l-60 85 -159 0 -159 0 32 -37z"/>
<path d="M7520 5203 c1 -16 289 -568 297 -570 15 -5 208 182 294 285 65 79
170 223 203 280 6 9 -76 12 -393 12 -221 0 -401 -3 -401 -7z"/>
<path d="M8469 5138 c-50 -86 -150 -227 -224 -318 -51 -61 -223 -235 -310
-313 l-40 -36 40 -81 40 -81 105 94 c254 227 450 470 590 730 l41 77 -99 0
-100 0 -43 -72z"/>
<path d="M8727 5106 c-121 -222 -264 -416 -435 -590 -97 -99 -235 -225 -271
-248 -18 -11 -18 -14 19 -82 102 -193 340 -667 340 -680 0 -7 -6 -16 -14 -19
-15 -6 -66 45 -300 303 -23 25 -95 104 -160 175 -66 72 -121 132 -122 134 -2
2 -16 -6 -33 -18 -42 -30 -282 -152 -371 -189 -297 -122 -610 -188 -935 -199
-117 -4 -193 -10 -197 -17 -4 -6 -17 -42 -29 -81 -12 -38 -32 -101 -45 -140
-12 -38 -55 -171 -94 -295 -62 -195 -125 -391 -160 -496 -5 -17 -10 -33 -10
-37 0 -22 392 -38 627 -26 244 12 377 29 613 79 460 97 908 288 1320 564 458
305 878 751 1163 1231 71 121 196 375 232 475 60 164 85 236 85 247 0 11 -107
13 -583 13 l-584 0 -56 -104z"/>
<path d="M9996 5128 c-45 -134 -144 -363 -218 -507 -38 -73 -66 -137 -61 -141
12 -12 345 -201 347 -198 52 74 201 382 263 543 32 81 133 372 133 381 0 2
-98 4 -218 4 l-218 0 -28 -82z"/>
<path d="M10616 5199 c-3 -8 -23 -75 -46 -149 -63 -203 -153 -422 -266 -648
l-102 -204 32 -19 c17 -10 36 -19 43 -19 16 0 218 410 278 564 72 185 159 456
149 466 -5 5 -26 12 -46 15 -28 5 -39 4 -42 -6z"/>
<path d="M4338 4815 c-36 -19 -69 -38 -72 -43 -7 -12 131 -168 256 -288 244
-234 515 -409 838 -541 47 -20 97 -39 113 -43 l27 -9 2 65 c1 35 2 76 2 91 1
25 -7 30 -99 68 -207 86 -413 206 -595 349 -41 32 -148 132 -237 222 -90 90
-164 164 -165 164 -2 -1 -33 -16 -70 -35z"/>
<path d="M2833 4347 c-90 -51 -167 -97 -173 -103 -16 -16 165 -293 319 -489
127 -161 295 -345 315 -345 6 0 74 63 150 140 l140 140 -52 57 c-58 64 -178
205 -232 272 -61 75 -154 209 -221 316 -35 57 -68 104 -74 104 -5 0 -83 -41
-172 -92z"/>
<path d="M9619 4344 c-89 -145 -249 -357 -385 -511 -71 -80 -130 -148 -132
-152 -1 -3 62 -71 141 -149 l144 -143 65 68 c101 107 149 160 235 268 157 196
353 490 337 504 -11 10 -342 201 -348 201 -2 0 -28 -39 -57 -86z"/>
<path d="M7495 4214 c-315 -168 -656 -261 -1030 -281 l-140 -8 -18 -55 c-10
-30 -22 -70 -27 -87 l-8 -33 62 0 c33 0 123 5 199 10 420 30 773 140 1164 362
l41 24 -61 66 -62 66 -120 -64z"/>
<path d="M2473 4139 c-18 -12 -33 -25 -33 -29 0 -8 82 -145 120 -200 181 -263
320 -438 477 -600 l82 -85 33 32 32 32 -60 63 c-203 214 -413 487 -554 721
-29 48 -56 87 -59 87 -3 0 -21 -10 -38 -21z"/>
<path d="M10101 4041 c-140 -227 -337 -482 -533 -686 l-67 -71 30 -32 c16 -18
33 -32 37 -32 9 0 211 221 274 300 157 195 398 542 398 574 0 14 -47 46 -69
46 -5 0 -36 -44 -70 -99z"/>
<path d="M3480 3505 l-145 -145 80 -78 c187 -182 434 -371 712 -545 l43 -27
14 23 c7 12 54 93 104 179 l90 157 -106 68 c-198 127 -427 307 -617 484 l-31
29 -144 -145z"/>
<path d="M8969 3562 c-115 -105 -186 -165 -304 -254 -95 -72 -335 -233 -358
-241 -12 -4 181 -347 201 -354 17 -7 211 118 390 252 150 111 321 256 400 337
l43 45 -144 146 -144 146 -84 -77z"/>
<path d="M3186 3211 l-28 -29 84 -80 c87 -83 237 -212 348 -298 113 -88 437
-304 454 -304 7 0 49 71 45 75 -2 2 -85 57 -184 123 -248 166 -410 294 -611
484 -33 32 -65 58 -70 58 -6 0 -23 -13 -38 -29z"/>
<path d="M9380 3167 c-194 -185 -414 -356 -659 -512 -68 -44 -125 -85 -128
-92 -3 -7 5 -26 17 -43 l22 -31 46 27 c222 128 538 368 764 579 l77 72 -32 31
c-18 18 -35 32 -37 32 -3 0 -34 -28 -70 -63z"/>
<path d="M4403 2991 c-14 -25 -47 -82 -73 -126 -82 -141 -100 -173 -100 -183
0 -16 362 -193 530 -259 197 -78 365 -133 410 -136 33 -2 35 0 46 43 6 25 26
99 44 165 18 66 35 134 37 150 l5 30 -121 38 c-184 57 -367 132 -569 233
l-183 91 -26 -46z"/>
<path d="M8215 3016 c-38 -26 -261 -135 -385 -187 -69 -28 -199 -76 -290 -106
-90 -30 -166 -55 -168 -57 -2 -2 11 -57 28 -122 18 -66 41 -153 52 -194 11
-41 21 -76 23 -78 12 -12 370 112 565 196 122 52 363 171 393 194 16 12 10 26
-85 191 -56 97 -105 177 -108 177 -3 0 -14 -6 -25 -14z"/>
<path d="M5365 2650 c-8 -13 -97 -349 -99 -374 -1 -20 40 -36 122 -50 l42 -6
1 117 c0 65 4 156 8 202 4 52 3 88 -4 96 -11 14 -63 26 -70 15z"/>
<path d="M7269 2646 c-5 -5 -227 -50 -319 -65 -138 -23 -330 -41 -447 -42 -85
-1 -126 -5 -133 -14 -7 -8 -9 -81 -8 -206 l3 -194 155 1 c253 2 490 34 877
121 13 3 21 8 19 12 -2 3 -21 69 -41 146 -61 234 -65 245 -84 245 -10 0 -20
-2 -22 -4z"/>
<path d="M5880 2536 c-5 -15 -26 -77 -46 -139 -19 -62 -44 -138 -55 -171 -11
-32 -17 -61 -14 -64 10 -11 218 -31 383 -38 l162 -7 0 206 c0 243 25 213 -190
221 -80 3 -164 8 -187 12 -39 6 -43 5 -53 -20z"/>
<path d="M4121 2504 c-21 -35 -21 -37 -4 -50 46 -33 415 -209 563 -267 163
-64 411 -147 441 -147 17 0 44 70 31 81 -4 3 -86 32 -183 63 -160 51 -263 91
-449 172 -78 34 -331 162 -344 175 -18 17 -34 9 -55 -27z"/>
<path d="M8515 2531 c-14 -13 -284 -149 -375 -190 -127 -56 -328 -130 -475
-176 -100 -31 -141 -48 -143 -60 -4 -15 16 -75 24 -75 22 0 336 106 464 157
183 72 549 249 556 268 3 7 -5 29 -16 49 -25 41 -23 39 -35 27z"/>
<path d="M5216 2102 c-3 -5 -8 -26 -12 -48 l-6 -39 101 -23 c55 -13 105 -21
111 -17 5 3 10 24 10 45 0 37 -2 40 -37 49 -65 15 -117 29 -139 36 -12 4 -24
3 -28 -3z"/>
<path d="M7351 2079 c-210 -54 -531 -97 -789 -106 -199 -7 -206 -9 -200 -65
l3 -33 165 2 c274 4 614 51 908 125 47 12 46 9 31 61 -12 43 -14 43 -118 16z"/>
<path d="M5710 1996 c-6 -8 -15 -28 -20 -45 -8 -27 -6 -32 13 -36 66 -14 312
-35 447 -37 l155 -3 3 42 c4 52 12 50 -208 57 -143 4 -252 14 -352 31 -15 2
-31 -2 -38 -9z"/>
</g>
</svg>
