<?xml version="1.0" standalone="no"?>
<!DOCTYPE svg PUBLIC "-//W3C//DTD SVG 20010904//EN"
 "http://www.w3.org/TR/2001/REC-SVG-20010904/DTD/svg10.dtd">
<svg version="1.0" xmlns="http://www.w3.org/2000/svg"
 width="1280.000000pt" height="1280.000000pt" viewBox="0 0 1280.000000 1280.000000"
 preserveAspectRatio="xMidYMid meet">
<metadata>
Created by potrace 1.15, written by Peter Selinger 2001-2017
</metadata>
<g transform="translate(0.000000,1280.000000) scale(0.100000,-0.100000)"
fill="#000000" stroke="none">
<path d="M7265 11658 c-4 -13 -24 -77 -45 -143 -148 -463 -182 -565 -188 -568
-4 -2 -72 4 -152 14 -80 9 -222 21 -317 25 l-172 7 -3 96 -3 96 -27 3 -28 3 0
-99 0 -99 -167 -6 c-293 -11 -616 -55 -866 -117 -44 -11 -85 -20 -91 -20 -7 0
-20 33 -30 73 -10 39 -20 80 -23 90 -6 22 -53 24 -53 1 0 -9 9 -52 21 -96 11
-44 18 -82 17 -84 -2 -2 -62 -21 -133 -43 -281 -86 -509 -180 -764 -312 -84
-44 -155 -79 -156 -77 -2 2 -24 38 -50 81 -25 42 -50 77 -54 77 -4 0 -14 -6
-23 -12 -15 -12 -12 -21 27 -88 24 -41 44 -79 44 -85 1 -5 -43 -37 -96 -70
-240 -147 -529 -372 -766 -594 l-37 -35 -70 69 -70 69 -20 -20 c-20 -20 -20
-20 49 -88 l70 -69 -105 -115 c-221 -241 -365 -431 -558 -735 l-37 -58 -52 31
c-99 59 -117 66 -127 50 -17 -27 -11 -35 70 -80 44 -25 80 -48 80 -51 0 -4
-21 -44 -47 -90 -137 -246 -287 -613 -374 -912 l-14 -48 -40 7 c-22 4 -57 13
-79 20 -53 19 -73 18 -79 -6 -6 -24 7 -35 58 -46 27 -6 -52 -10 -247 -12
l-288 -2 -6 -25 c-3 -14 -4 -32 0 -40 5 -13 583 -15 5156 -15 l5150 0 0 40 0
40 -302 0 c-211 1 -298 4 -285 11 17 10 23 44 9 53 -4 2 -47 -6 -95 -20 -49
-14 -92 -22 -96 -19 -5 2 -12 20 -15 39 -8 40 -72 237 -115 355 -57 152 -133
324 -218 489 -45 90 -83 165 -83 167 0 2 36 24 80 50 44 26 80 50 80 54 0 4
-6 15 -13 25 -12 17 -18 15 -91 -28 -43 -25 -81 -46 -85 -46 -4 0 -36 46 -71
103 -143 230 -344 493 -547 714 l-82 90 69 68 c66 65 69 70 53 87 -16 18 -20
16 -83 -47 -36 -36 -69 -65 -74 -65 -4 0 -67 53 -139 119 -247 223 -415 349
-710 535 l-58 37 37 67 c21 37 42 75 48 85 8 13 7 20 -4 27 -27 17 -35 11 -83
-70 -27 -44 -50 -80 -53 -80 -2 0 -21 10 -42 23 -157 99 -530 261 -802 350
-102 33 -189 64 -194 68 -5 4 1 46 14 95 22 89 20 103 -17 104 -11 0 -35 -69
-50 -141 -3 -17 -12 -33 -20 -36 -13 -5 -82 8 -196 38 l-37 10 5 82 c5 85 30
650 30 677 0 8 -10 16 -22 18 -15 2 -23 -3 -28 -20z m-14 -570 c-6 -128 -18
-390 -26 -583 -34 -787 -56 -1293 -70 -1600 -3 -55 -9 -224 -15 -375 -6 -151
-18 -408 -26 -570 -8 -163 -14 -312 -14 -333 l0 -37 -256 0 -256 0 5 43 c4 44
50 310 66 387 5 25 17 88 26 140 9 52 20 115 25 140 5 25 16 86 24 135 9 50
25 140 36 200 12 61 32 173 45 250 14 77 32 178 40 225 22 122 45 247 55 305
5 28 18 104 30 170 12 66 25 143 30 170 10 56 31 176 55 305 8 47 24 137 36
200 32 181 47 267 69 385 11 61 32 175 46 255 34 194 41 231 58 325 9 44 15
86 16 94 0 8 3 12 6 9 3 -4 1 -111 -5 -240z m-921 -198 c0 -48 -1 -50 -27 -50
-16 0 -102 -5 -193 -10 -271 -16 -510 -50 -755 -105 -60 -14 -112 -22 -116
-17 -13 14 -29 76 -22 83 7 6 166 44 293 69 196 39 528 75 743 79 l77 1 0 -50z
m524 19 c87 -10 161 -20 163 -23 3 -2 -4 -25 -16 -50 -18 -41 -23 -45 -48 -41
-105 17 -442 45 -545 45 -15 0 -18 9 -18 51 l0 52 153 -7 c83 -4 224 -16 311
-27z m539 -93 c54 -13 100 -26 104 -29 3 -4 0 -26 -7 -50 l-12 -44 -81 19
c-123 27 -123 27 -119 82 2 25 7 46 11 46 3 0 50 -11 104 -24z m-2216 -93 c9
-37 -3 -51 -49 -58 -80 -14 -404 -130 -583 -210 -82 -37 -293 -142 -333 -167
-40 -24 -53 -20 -80 26 l-21 35 102 55 c143 76 318 157 492 226 77 31 379 133
420 142 22 5 43 -15 52 -49z m2591 -12 c98 -33 250 -90 338 -127 145 -61 451
-211 481 -236 10 -8 8 -19 -9 -49 -12 -22 -25 -39 -30 -39 -4 0 -61 29 -126
63 -231 123 -528 247 -747 312 -142 42 -138 40 -130 83 8 45 12 52 30 52 7 0
94 -27 193 -59z m-1438 -231 c0 -161 -3 -210 -12 -210 -81 -1 -380 -22 -438
-30 -151 -22 -268 -42 -378 -67 -63 -14 -115 -23 -117 -21 -5 4 -104 377 -105
391 0 13 39 24 196 56 186 37 314 57 474 70 69 6 141 13 160 15 19 1 77 4 128
4 l92 2 0 -210z m474 185 c71 -8 130 -16 133 -18 5 -5 -119 -393 -129 -402 -3
-2 -93 3 -345 21 l-73 6 0 210 0 211 143 -7 c78 -4 200 -14 271 -21z m579
-102 c31 -9 57 -16 57 -17 0 -4 -101 -381 -105 -393 -3 -8 -14 -8 -44 -1 l-40
10 5 192 c3 105 7 201 10 214 5 25 5 25 117 -5z m-2144 -81 c6 -26 22 -90 36
-142 57 -212 56 -203 42 -212 -6 -4 -17 -8 -23 -8 -22 0 -283 -89 -399 -136
-65 -26 -192 -84 -282 -129 -111 -56 -166 -78 -171 -71 -5 6 -40 65 -79 131
-132 228 -127 217 -112 227 50 33 390 194 519 245 161 64 440 154 452 147 3
-2 11 -26 17 -52z m2460 -11 c97 -33 237 -85 311 -116 156 -66 450 -214 456
-230 3 -6 -41 -91 -97 -188 l-101 -177 -121 65 c-184 96 -377 178 -569 241
-95 32 -177 61 -182 65 -4 4 5 56 22 116 16 59 40 147 52 196 16 59 28 87 38
87 8 0 94 -27 191 -59z m-3603 -197 c23 -43 37 -28 -140 -140 -207 -130 -408
-285 -614 -473 l-104 -94 -34 35 -35 35 108 100 c125 116 328 280 461 373 135
95 305 200 323 200 9 0 24 -16 35 -36z m4784 -110 c202 -133 512 -384 632
-511 l28 -29 -34 -33 -34 -33 -114 103 c-213 195 -445 372 -663 506 l-93 57
15 31 c28 55 32 57 72 33 20 -11 106 -67 191 -124z m-2226 36 c71 -5 131 -11
133 -14 4 -4 -66 -232 -142 -461 -13 -38 -55 -171 -95 -295 -39 -124 -79 -245
-89 -270 l-17 -45 -192 -7 c-455 -17 -872 -135 -1255 -357 l-85 -49 -109 117
c-59 65 -184 201 -278 303 -93 103 -175 189 -182 192 -23 10 -33 -19 -17 -50
174 -332 364 -717 358 -723 -330 -278 -513 -488 -676 -776 -25 -44 -57 -101
-72 -127 l-27 -48 -589 0 c-325 0 -590 2 -590 5 0 12 75 208 121 316 176 411
417 776 732 1109 574 607 1312 1001 2132 1139 118 20 269 39 350 44 119 8 471
6 589 -3z m-2386 -228 c40 -70 86 -150 102 -178 l30 -51 -107 -68 c-197 -124
-419 -295 -571 -439 l-73 -70 -150 150 -150 150 108 98 c167 152 341 288 537
417 99 66 184 119 190 119 6 0 44 -58 84 -128z m3083 108 c182 -47 435 -141
633 -234 658 -310 1261 -856 1634 -1481 121 -204 260 -499 328 -699 13 -38 24
-71 24 -73 0 -2 -266 -2 -592 -1 l-591 3 -25 45 c-13 25 -41 76 -63 114 -21
38 -39 76 -38 85 0 9 33 45 72 80 77 69 242 220 425 389 98 92 111 107 99 120
-16 15 1 23 -563 -269 -95 -49 -180 -89 -190 -89 -11 1 -48 36 -89 86 -265
323 -670 612 -1078 770 -50 20 -102 40 -115 45 -23 9 -23 9 -17 171 4 90 13
293 21 451 8 158 14 330 14 382 0 99 5 125 24 125 7 0 46 -9 87 -20z m1246
-26 c258 -163 484 -337 703 -542 l65 -61 -150 -150 -150 -151 -65 63 c-151
147 -394 337 -570 447 -47 29 -91 59 -99 66 -11 10 3 41 89 188 56 97 106 176
111 176 5 0 35 -16 66 -36z m-5435 -491 c15 -15 28 -31 28 -35 0 -5 -44 -58
-99 -118 -198 -218 -360 -429 -495 -646 -38 -60 -69 -110 -70 -111 -1 -1 -21
9 -43 23 l-42 25 26 47 c70 128 270 404 432 597 77 93 220 245 230 245 3 0 18
-12 33 -27z m6487 -49 c111 -118 243 -276 344 -412 105 -141 267 -389 267
-408 0 -10 -61 -54 -74 -54 -2 0 -41 59 -86 132 -136 216 -299 427 -498 645
-54 59 -81 97 -76 105 11 21 47 58 55 58 4 0 34 -29 68 -66z m-6202 -246 c79
-79 143 -148 143 -153 0 -6 -16 -27 -36 -46 -56 -52 -202 -224 -287 -337 -73
-95 -231 -330 -240 -356 -3 -8 -11 -7 -28 3 -12 7 -92 53 -177 102 -85 48
-157 90 -159 93 -14 13 196 326 333 496 94 119 292 340 303 340 3 0 70 -64
148 -142z m6078 13 c187 -209 343 -416 473 -628 51 -82 53 -88 35 -100 -32
-24 -330 -193 -339 -193 -5 0 -43 53 -84 118 -103 161 -260 369 -377 497 -54
59 -102 113 -108 121 -8 11 24 48 135 159 80 80 148 145 152 145 3 0 54 -54
113 -119z m-3119 -229 l21 -7 -24 -75 c-14 -41 -29 -81 -35 -87 -7 -8 -37 -13
-82 -13 -127 -1 -364 -31 -511 -65 -186 -44 -510 -171 -635 -250 -22 -14 -47
-25 -57 -25 -9 0 -43 28 -74 62 l-56 63 51 34 c251 166 713 316 1101 356 131
14 268 17 301 7z m-1751 -132 c38 -41 215 -234 394 -429 179 -195 355 -386
390 -425 35 -39 133 -145 216 -236 84 -91 167 -182 185 -202 l32 -38 -163 0
-164 1 -100 145 c-138 200 -520 750 -785 1129 -43 61 -85 124 -95 140 l-18 30
20 -20 c11 -11 51 -54 88 -95z m2631 -36 c425 -160 820 -443 1113 -799 22 -27
37 -52 33 -56 -4 -4 -40 -24 -80 -44 l-74 -38 -45 54 c-123 145 -339 339 -498
446 -150 101 -359 210 -492 258 l-53 19 0 77 c0 78 6 109 20 109 4 0 38 -12
76 -26z m-986 -231 c-10 -32 -28 -85 -38 -118 -11 -33 -53 -161 -92 -285 -40
-124 -96 -299 -126 -390 -29 -91 -60 -189 -70 -217 -11 -37 -21 -53 -33 -52
-9 0 -40 28 -70 62 -30 34 -102 114 -161 177 -58 63 -151 165 -207 225 -55 61
-147 162 -206 225 -58 63 -103 119 -100 124 12 19 293 146 408 184 221 74 452
118 636 121 l77 1 -18 -57z m-3816 -46 c8 -13 6 -23 -7 -44 -42 -65 -197 -389
-249 -523 -57 -145 -129 -356 -143 -417 -4 -22 -12 -33 -24 -33 -24 0 -81 20
-81 28 0 7 41 141 73 242 28 86 95 256 147 375 54 120 184 379 202 402 12 15
66 -4 82 -30z m7940 -212 c35 -71 88 -186 116 -255 61 -145 180 -494 180 -527
0 -21 -5 -23 -49 -23 -48 0 -50 1 -57 33 -12 59 -110 340 -159 462 -27 66 -92
207 -145 312 l-97 193 41 24 41 24 33 -56 c17 -32 61 -115 96 -187z m-3060 81
c255 -125 444 -264 650 -476 65 -67 114 -126 110 -130 -5 -5 -129 -69 -275
-144 l-266 -136 -223 0 -223 0 7 118 c4 64 11 230 16 367 16 418 21 475 38
475 9 0 83 -33 166 -74z m-4529 -66 c61 -35 120 -69 132 -77 22 -13 22 -13
-55 -165 -43 -84 -91 -182 -106 -217 -23 -54 -119 -307 -132 -348 -2 -10 -56
-13 -223 -13 l-220 0 19 69 c60 216 252 663 360 838 l20 33 47 -28 c27 -16 98
-57 158 -92z m7338 -68 c95 -190 182 -398 246 -590 28 -84 51 -155 51 -158 0
-2 -99 -3 -221 -2 l-221 3 -43 122 c-54 152 -129 324 -207 472 -47 89 -57 116
-47 122 8 5 88 51 178 104 123 71 168 92 177 84 7 -6 46 -77 87 -157z m-5408
67 l40 -80 -45 -37 c-192 -156 -388 -391 -555 -664 l-20 -33 -103 -3 c-56 -1
-102 0 -102 2 0 7 105 188 146 253 113 178 296 389 465 538 66 58 122 105 127
105 4 0 25 -36 47 -81z m4140 -276 c-139 -131 -538 -498 -566 -521 -26 -21
-36 -22 -134 -20 l-107 3 151 105 c237 164 569 396 646 450 39 27 72 49 75 49
3 0 -26 -30 -65 -66z m-4010 24 c6 -12 73 -142 148 -290 75 -147 137 -269 137
-272 0 -3 -180 -5 -400 -5 -297 0 -400 3 -400 12 0 39 158 242 355 455 25 27
138 123 145 123 3 0 10 -10 15 -23z m3779 -476 c25 -46 46 -85 46 -87 0 -2
-46 -4 -102 -4 l-103 0 -17 31 c-10 17 -18 39 -18 49 0 10 28 43 62 73 72 63
60 69 132 -62z"/>
<path d="M6314 11530 c-58 -24 -70 -95 -25 -141 58 -57 146 -21 146 60 0 65
-62 106 -121 81z"/>
<path d="M5025 11362 c-53 -11 -82 -66 -61 -117 38 -91 166 -65 166 33 0 56
-49 95 -105 84z"/>
<path d="M7633 11362 c-32 -5 -63 -49 -63 -89 0 -91 122 -115 165 -33 33 65
-25 134 -102 122z"/>
<path d="M3765 10835 c-50 -49 -20 -137 51 -151 23 -4 37 0 61 20 39 33 48 67
28 106 -29 56 -98 68 -140 25z"/>
<path d="M8814 10836 c-60 -51 -19 -150 62 -150 74 0 113 96 59 149 -32 33
-84 33 -121 1z"/>
<path d="M2727 10040 c-66 -52 -27 -160 58 -160 38 0 85 50 85 90 0 42 -47 90
-88 90 -16 0 -41 -9 -55 -20z"/>
<path d="M9859 10031 c-20 -20 -29 -39 -29 -61 0 -22 9 -41 29 -61 47 -46 106
-37 137 22 46 90 -65 172 -137 100z"/>
<path d="M10693 9008 c-34 -9 -63 -49 -63 -87 0 -11 12 -33 26 -50 21 -25 33
-31 65 -31 68 0 106 62 76 125 -19 39 -58 55 -104 43z"/>
<path d="M1923 8995 c-44 -31 -35 -131 12 -149 41 -16 83 -6 109 25 36 43 31
92 -13 126 -22 17 -82 16 -108 -2z"/>
<path d="M1421 7774 c-25 -21 -31 -33 -31 -65 0 -99 128 -125 166 -34 17 41 7
73 -32 104 -35 28 -66 27 -103 -5z"/>
<path d="M11171 7774 c-63 -53 -28 -154 54 -154 82 0 117 101 54 154 -17 14
-41 26 -54 26 -13 0 -37 -12 -54 -26z"/>
<path d="M6645 7051 c-273 -28 -492 -206 -578 -469 -17 -55 -21 -91 -21 -197
0 -146 11 -195 72 -304 85 -156 251 -273 446 -316 133 -30 398 -13 552 35 80
24 144 53 144 64 0 172 8 325 18 343 15 28 46 45 92 53 22 3 36 12 38 23 3 16
-18 17 -303 17 -286 0 -306 -1 -303 -17 2 -14 16 -19 56 -23 39 -4 59 -12 79
-32 26 -27 27 -29 30 -192 4 -194 8 -188 -119 -207 -142 -22 -259 13 -346 105
-59 63 -87 130 -113 280 -23 131 -24 186 -4 325 34 228 98 341 235 409 49 24
66 27 160 27 100 0 109 -2 175 -34 97 -47 190 -142 241 -247 61 -123 66 -114
64 136 0 118 -5 219 -9 223 -5 5 -22 -11 -38 -35 -36 -54 -68 -59 -161 -24
-146 54 -264 71 -407 57z"/>
<path d="M3297 7043 c-3 -5 -35 -74 -70 -153 -240 -540 -387 -863 -419 -926
-38 -73 -76 -114 -125 -136 -24 -10 -43 -25 -43 -33 0 -13 32 -15 204 -15 199
0 248 7 194 29 -13 5 -40 13 -62 16 -46 8 -86 44 -86 80 0 29 34 133 62 188
l18 37 219 0 218 0 23 -52 c63 -150 79 -196 74 -215 -7 -25 -68 -53 -114 -53
-20 0 -30 -5 -30 -15 0 -13 38 -15 302 -13 223 2 302 6 305 15 3 7 -12 16 -34
22 -22 6 -51 23 -65 38 -41 45 -46 54 -375 803 -30 69 -61 139 -69 155 -7 17
-33 75 -57 129 -40 94 -58 119 -70 99z m-57 -530 c24 -54 63 -144 86 -200 l43
-103 -179 0 c-99 0 -180 2 -180 5 0 13 173 395 179 395 4 0 27 -44 51 -97z"/>
<path d="M8129 7003 c-12 -26 -33 -73 -46 -103 -14 -30 -45 -100 -70 -155 -25
-55 -53 -119 -64 -141 -10 -23 -48 -109 -85 -190 -36 -82 -87 -194 -111 -249
-114 -254 -150 -310 -223 -339 -22 -9 -40 -23 -40 -31 0 -13 29 -15 210 -15
136 0 210 4 210 10 0 13 -33 27 -82 35 -20 3 -47 14 -60 24 -34 28 -29 95 14
196 l34 80 221 3 221 2 47 -111 c69 -165 63 -191 -42 -205 -35 -4 -53 -11 -53
-20 0 -12 51 -14 298 -14 164 0 302 3 305 7 10 10 -13 33 -33 33 -29 0 -79 48
-107 104 -35 66 -107 227 -308 686 -42 96 -87 200 -101 230 -14 30 -39 88 -57
129 -18 41 -38 76 -45 79 -7 2 -21 -16 -33 -45z m7 -598 l83 -190 -176 -3
c-97 -1 -178 -1 -180 1 -3 4 41 112 82 201 79 174 98 209 103 196 3 -8 43
-100 88 -205z"/>
<path d="M1250 7010 c0 -13 7 -20 20 -20 37 0 100 -40 130 -82 l30 -41 0 -456
c0 -295 -4 -470 -11 -495 -15 -55 -47 -82 -113 -96 -36 -7 -56 -16 -56 -26 0
-12 36 -14 220 -14 180 0 220 3 220 14 0 8 -16 16 -41 20 -75 12 -108 32 -129
78 -18 40 -20 68 -20 461 0 246 4 416 9 413 5 -3 179 -216 388 -473 428 -529
440 -543 459 -543 12 0 14 84 14 523 0 287 5 551 10 586 11 78 34 105 101 121
53 13 62 19 50 38 -6 9 -58 12 -207 10 -167 -3 -199 -5 -199 -18 0 -9 16 -17
45 -22 56 -10 90 -34 113 -80 16 -32 17 -65 15 -338 l-3 -303 -174 219 c-96
120 -226 284 -289 364 -63 80 -124 153 -134 163 -18 15 -45 17 -234 17 -207 0
-214 -1 -214 -20z"/>
<path d="M3800 7012 c0 -13 12 -22 38 -30 21 -7 47 -22 59 -34 18 -21 141
-288 237 -518 161 -385 293 -675 309 -678 13 -3 26 14 51 70 46 100 150 331
234 518 39 85 81 180 95 210 14 30 46 101 71 158 74 164 113 222 176 260 30
18 55 38 55 45 0 9 -49 12 -200 12 -176 0 -200 -2 -203 -16 -2 -13 8 -17 44
-22 54 -6 94 -32 107 -71 11 -32 -11 -107 -61 -216 -17 -36 -57 -126 -90 -200
-33 -74 -75 -169 -94 -210 -20 -42 -38 -85 -42 -98 -16 -49 -14 -53 -220 437
-64 150 -116 286 -116 303 0 24 6 32 35 44 19 7 53 14 75 14 34 0 41 3 38 18
-3 16 -27 17 -301 20 -284 2 -297 1 -297 -16z"/>
<path d="M5225 7020 c-12 -19 6 -30 48 -30 50 0 104 -30 117 -66 6 -15 10
-225 10 -527 0 -604 9 -562 -129 -585 -25 -4 -46 -13 -49 -20 -3 -9 69 -12
327 -12 273 0 331 2 331 14 0 8 -17 15 -48 19 -71 8 -99 25 -116 69 -14 33
-16 107 -15 521 0 346 3 492 12 517 15 43 63 70 125 70 36 0 43 3 40 18 -3 16
-28 17 -325 20 -209 1 -324 -1 -328 -8z"/>
<path d="M8918 7025 c-20 -21 -6 -35 33 -35 52 0 103 -24 118 -56 8 -18 11
-176 11 -539 l0 -514 -22 -26 c-17 -19 -40 -29 -85 -38 -38 -7 -63 -17 -63
-24 0 -10 68 -13 320 -13 266 0 320 2 320 14 0 9 -17 16 -47 21 -66 10 -99 29
-112 66 -7 20 -11 115 -11 244 l0 213 30 5 c16 4 35 4 42 1 7 -3 101 -130 208
-282 l196 -277 189 -3 c104 -1 196 0 203 3 19 7 -3 35 -28 35 -41 0 -101 74
-353 434 l-77 109 56 23 c144 58 213 151 214 285 0 124 -55 232 -145 285 -102
59 -152 65 -590 71 -220 3 -403 2 -407 -2z m687 -86 c54 -15 120 -82 136 -139
16 -59 16 -185 0 -233 -16 -46 -63 -102 -102 -123 -30 -15 -233 -39 -250 -29
-11 7 -13 528 -1 539 9 11 166 0 217 -15z"/>
<path d="M10327 7023 c-19 -18 -5 -33 32 -33 21 0 52 -5 69 -11 64 -22 62 -5
62 -577 0 -508 0 -520 -20 -545 -21 -27 -74 -47 -122 -47 -18 0 -28 -5 -28
-15 0 -13 67 -15 540 -15 297 0 540 3 540 8 0 4 9 63 19 132 27 178 33 238 26
249 -8 14 -35 2 -35 -16 0 -31 -65 -146 -107 -190 -26 -26 -71 -57 -110 -75
-59 -26 -82 -31 -183 -35 -136 -6 -180 3 -198 40 -9 19 -14 91 -15 249 l-2
223 48 3 c54 4 112 -23 145 -67 20 -28 62 -132 62 -156 0 -28 21 -68 30 -59 6
6 10 143 11 329 2 283 0 320 -14 323 -11 2 -18 -11 -27 -55 -15 -71 -37 -129
-64 -166 -26 -36 -92 -67 -143 -67 l-40 0 -6 125 c-4 69 -4 182 0 251 l6 126
152 -4 c141 -4 155 -6 208 -31 70 -35 113 -88 141 -175 45 -142 56 -122 56
104 l0 184 -513 0 c-283 0 -517 -3 -520 -7z"/>
<path d="M1247 5283 c-3 -7 -3 -15 1 -50 2 -10 61 -13 260 -14 192 0 251 -3
235 -11 -24 -11 -31 -42 -13 -53 6 -3 47 3 92 15 84 22 108 21 108 -4 0 -27
92 -301 153 -456 33 -85 107 -249 165 -364 82 -164 101 -210 91 -218 -8 -5
-42 -25 -76 -44 -70 -40 -76 -45 -67 -68 9 -24 25 -20 100 24 38 22 74 40 80
40 7 0 33 -35 60 -77 156 -254 358 -519 557 -730 42 -45 77 -86 77 -90 0 -5
-29 -37 -64 -72 -54 -53 -63 -67 -55 -83 5 -10 15 -18 22 -18 6 0 42 30 79 67
l68 68 83 -81 c199 -194 487 -417 730 -564 48 -29 87 -55 87 -58 0 -3 -21 -41
-46 -84 -38 -64 -44 -81 -34 -93 22 -27 36 -16 81 65 24 44 47 80 50 80 4 0
76 -36 161 -79 258 -134 537 -249 783 -322 61 -18 111 -33 112 -34 2 -1 -9
-39 -23 -84 -14 -46 -23 -89 -20 -97 8 -20 44 -17 50 4 45 157 47 163 64 158
9 -2 61 -14 115 -27 53 -12 99 -25 101 -28 3 -4 1 -81 -4 -171 -5 -91 -11
-265 -15 -387 -7 -214 -7 -223 11 -223 14 0 23 14 36 53 21 68 174 544 201
625 l20 64 36 -5 c57 -8 374 -36 501 -44 l115 -8 3 -98 c3 -95 3 -98 25 -95
21 3 22 9 25 99 l3 97 142 6 c169 8 322 21 472 42 115 15 384 66 445 84 72 21
76 18 96 -66 21 -88 34 -110 59 -101 19 8 17 41 -12 135 -10 32 -13 55 -7 60
5 5 65 25 134 46 260 79 494 175 759 312 79 41 147 74 152 74 4 0 28 -36 54
-80 26 -44 50 -80 54 -80 4 0 15 6 24 12 15 12 12 21 -29 92 -25 44 -43 84
-41 90 3 7 45 36 93 65 222 136 519 362 702 536 l103 98 67 -66 c69 -69 88
-79 99 -51 4 11 -16 37 -62 84 l-67 68 101 108 c185 196 390 461 528 684 37
60 70 110 73 110 3 0 41 -20 84 -45 61 -34 82 -42 93 -34 25 22 13 38 -67 83
-44 26 -80 50 -80 54 0 4 10 23 22 42 48 78 189 374 246 515 33 83 84 224 112
315 29 91 54 168 56 171 2 4 34 -2 71 -12 120 -34 119 -34 126 -8 8 29 1 39
-26 39 -12 1 -35 7 -52 15 -26 12 14 13 311 14 307 1 342 3 348 17 4 9 4 25 1
35 -6 18 -145 19 -5155 19 -2832 0 -5151 -3 -5153 -7z m882 -243 c85 -254 153
-420 262 -636 l96 -192 -40 -22 c-39 -22 -40 -23 -55 -4 -27 36 -220 439 -262
549 -54 139 -150 431 -150 455 0 23 15 29 58 27 l33 -2 58 -175z m538 168 c6
-7 18 -38 28 -68 37 -115 129 -329 207 -482 44 -88 78 -161 76 -162 -1 -1 -32
-19 -68 -39 -36 -20 -114 -65 -175 -101 -83 -48 -113 -61 -122 -52 -16 16
-163 311 -213 430 -58 136 -170 454 -170 482 0 2 96 4 214 4 159 0 216 -3 223
-12z m1239 4 c5 -4 31 -45 56 -92 25 -47 55 -101 67 -121 l21 -36 -287 -265
c-159 -145 -298 -272 -310 -283 -17 -14 -20 -23 -12 -37 9 -17 28 -10 232 95
122 63 291 150 376 193 l154 78 24 -29 c81 -97 212 -240 242 -267 20 -17 56
-49 81 -72 212 -196 592 -425 859 -517 l94 -32 -7 -126 c-8 -146 -23 -522 -33
-799 -3 -106 -9 -195 -13 -197 -10 -6 -177 38 -293 76 -457 153 -844 367
-1247 692 -97 79 -408 390 -487 487 -305 379 -509 735 -659 1149 -19 52 -34
98 -34 103 0 10 1161 10 1176 0z m298 -33 c13 -23 22 -47 19 -53 -3 -6 -33
-37 -67 -68 l-62 -57 -57 103 c-31 57 -57 106 -57 110 0 3 45 6 99 6 l100 0
25 -41z m391 32 c-5 -8 -220 -160 -630 -444 -55 -38 -129 -90 -165 -116 -110
-79 -58 -24 215 225 66 60 122 111 125 114 3 3 60 56 127 118 l122 112 106 0
c63 0 104 -4 100 -9z m961 -120 c-4 -71 -11 -239 -16 -373 -15 -381 -21 -468
-35 -468 -6 0 -79 33 -161 74 -266 133 -488 296 -678 498 -53 56 -96 105 -96
108 0 3 126 69 280 148 l279 142 217 0 217 0 -7 -129z m554 110 c0 -17 -25
-165 -65 -386 -9 -49 -20 -112 -25 -140 -5 -27 -23 -129 -41 -225 -17 -96 -35
-195 -39 -220 -8 -45 -46 -260 -75 -420 -22 -122 -45 -247 -55 -305 -5 -27
-18 -104 -30 -170 -12 -66 -25 -142 -30 -170 -10 -56 -32 -179 -55 -305 -43
-235 -67 -370 -75 -420 -5 -30 -16 -93 -25 -140 -9 -47 -22 -122 -30 -167 -8
-46 -22 -122 -31 -170 -8 -49 -19 -108 -24 -133 -4 -25 -20 -118 -36 -207 -15
-90 -30 -161 -32 -159 -2 3 1 103 7 223 6 120 15 337 21 483 6 146 17 416 25
600 33 753 46 1047 55 1285 6 138 15 349 21 469 5 121 14 322 19 448 5 125 12
233 15 238 4 6 100 10 256 10 236 0 249 -1 249 -19z m666 2 c11 -10 73 -76
139 -148 211 -230 319 -347 436 -474 63 -68 124 -136 137 -152 l24 -29 -154
-74 c-208 -101 -390 -161 -608 -200 -92 -16 -342 -41 -358 -35 -6 2 0 34 13
74 12 39 53 165 89 280 37 116 73 228 81 250 7 22 46 141 86 265 66 209 85
260 93 260 2 0 12 -8 22 -17z m376 5 c8 -7 87 -116 175 -243 88 -126 238 -342
333 -480 95 -137 221 -317 278 -400 58 -82 130 -186 160 -230 l54 -80 -73 75
c-62 63 -239 255 -439 475 -25 27 -77 83 -116 125 -38 41 -121 131 -184 200
-63 69 -202 221 -309 338 -108 118 -197 218 -199 223 -6 15 301 11 320 -3z
m1563 -5 c-35 -93 -213 -361 -336 -509 -71 -84 -259 -271 -345 -342 l-52 -42
-19 32 c-10 18 -30 54 -43 81 l-25 47 80 72 c210 190 390 406 500 603 41 72
46 75 153 75 85 0 94 -2 87 -17z m1245 -3 c0 -26 -70 -217 -128 -350 -342
-783 -985 -1456 -1767 -1850 -415 -209 -810 -327 -1290 -386 -220 -27 -808
-23 -854 5 -9 6 -5 29 17 97 17 49 60 184 97 299 61 191 145 454 197 611 l20
61 181 7 c460 17 909 145 1271 360 43 26 82 45 86 44 4 -2 36 -34 70 -73 35
-38 111 -122 170 -185 58 -63 153 -166 210 -228 107 -118 124 -132 142 -114 7
7 -7 42 -45 113 -30 57 -116 225 -192 373 -114 223 -135 270 -124 281 8 7 69
60 136 119 225 197 429 454 574 724 29 53 57 100 63 104 6 4 271 8 589 8 571
0 577 0 577 -20z m504 11 c7 -11 -61 -218 -130 -393 -76 -192 -246 -538 -264
-538 -8 0 -349 195 -358 205 -3 2 5 19 16 37 68 111 204 413 267 593 16 44 33
86 38 93 11 14 422 18 431 3z m-2171 -58 c-56 -89 -109 -160 -196 -260 -91
-107 -268 -276 -278 -265 -11 12 -274 522 -291 565 -7 16 16 17 397 17 l405 0
-37 -57z m2412 43 c18 -13 16 -20 -37 -182 -30 -93 -79 -230 -109 -304 -72
-184 -256 -550 -276 -550 -9 0 -30 9 -48 20 l-33 20 55 101 c121 220 249 525
328 781 40 127 40 128 71 128 16 0 39 -6 49 -14z m-6200 -436 c227 -264 584
-515 923 -650 l82 -33 0 -88 c0 -48 -4 -90 -9 -93 -14 -9 -183 59 -341 137
-237 118 -445 265 -639 452 -97 93 -261 272 -261 285 0 7 142 80 156 80 6 0
46 -40 89 -90z m-1439 -397 c127 -206 295 -426 466 -608 l57 -61 -147 -147
-147 -147 -76 77 c-160 164 -358 419 -498 644 -57 90 -68 116 -58 125 20 21
341 203 348 198 4 -2 28 -39 55 -81z m6735 6 c57 -34 134 -79 172 -101 37 -21
67 -42 67 -45 0 -17 -183 -291 -275 -413 -118 -155 -353 -420 -373 -420 -4 0
-72 65 -151 144 l-144 144 107 117 c59 65 148 172 199 237 91 118 267 375 267
390 0 18 31 5 131 -53z m-2115 -155 c68 -77 74 -66 -71 -144 -365 -197 -751
-301 -1177 -317 l-167 -6 20 64 c12 35 23 74 26 87 6 24 37 47 53 37 13 -8
273 12 384 30 239 39 490 122 711 236 83 42 153 77 157 78 3 1 32 -29 64 -65z
m-5143 -91 c129 -221 350 -514 560 -742 42 -47 77 -87 77 -90 -1 -4 -14 -22
-30 -41 l-30 -34 -82 89 c-121 129 -251 286 -350 421 -105 144 -248 367 -248
386 0 13 51 46 73 47 4 1 18 -16 30 -36z m7672 8 c17 -10 31 -25 33 -34 5 -24
-204 -335 -333 -497 -118 -150 -324 -380 -339 -380 -6 0 -25 14 -43 32 l-32
31 79 81 c163 167 354 411 503 644 50 78 94 142 97 141 3 0 19 -8 35 -18z
m-6492 -566 c148 -136 328 -276 498 -387 87 -57 158 -106 158 -109 1 -7 -187
-338 -199 -352 -4 -5 -50 17 -101 49 -214 132 -478 336 -644 496 l-100 97 145
145 c80 80 146 146 148 146 2 0 45 -38 95 -85z m5487 -71 l145 -145 -95 -92
c-137 -132 -338 -291 -535 -422 -93 -62 -180 -118 -192 -124 -20 -10 -25 -5
-71 72 -100 167 -154 266 -150 276 1 5 77 59 168 119 171 114 369 269 500 391
41 39 77 70 80 71 3 0 70 -66 150 -146z m-5748 -457 c167 -144 404 -317 622
-452 14 -9 13 -14 -9 -52 l-26 -43 -82 52 c-256 159 -486 337 -747 576 l-65
60 34 36 34 35 69 -62 c38 -34 114 -101 170 -150z m6031 165 l37 -38 -123
-112 c-141 -127 -293 -250 -439 -354 -121 -85 -313 -208 -326 -208 -10 0 -52
64 -52 79 0 4 12 13 26 20 40 18 269 171 381 254 131 98 323 260 398 336 33
34 60 61 60 61 1 0 18 -17 38 -38z m-4898 -243 c191 -98 358 -167 554 -231 86
-28 158 -52 160 -54 6 -5 -94 -384 -106 -394 -16 -16 -353 98 -566 191 -84 37
-274 131 -364 180 -24 12 -43 27 -43 32 0 16 202 358 209 355 3 -2 74 -37 156
-79z m3763 -106 c119 -209 128 -175 -76 -278 -254 -127 -676 -289 -773 -297
-38 -3 -28 -27 -100 242 -17 63 -33 123 -36 132 -3 10 1 20 8 22 320 99 531
183 734 290 66 35 125 64 130 65 6 1 57 -79 113 -176z m-2915 -213 c9 -8 -10
-410 -19 -419 -6 -6 -153 29 -159 38 -4 7 32 148 70 277 8 28 15 56 15 62 0 6
5 23 10 37 9 24 14 26 43 20 17 -4 36 -11 40 -15z m1877 5 c0 -5 10 -42 57
-215 36 -135 45 -172 39 -177 -22 -22 -429 -96 -651 -117 -125 -12 -332 -22
-383 -17 -10 1 -12 46 -10 209 l3 207 160 7 c221 10 612 64 705 97 28 10 80
14 80 6z m-1140 -104 l135 -6 3 -199 c2 -132 -1 -203 -8 -210 -7 -7 -50 -10
-113 -8 -139 4 -420 31 -430 41 -4 4 -4 19 2 32 5 13 33 98 62 189 28 91 54
169 57 174 2 4 39 5 81 1 42 -4 137 -10 211 -14z m-1760 -133 c212 -102 411
-181 616 -243 65 -19 120 -37 122 -39 6 -7 -9 -85 -18 -91 -10 -6 -228 61
-375 116 -157 59 -389 163 -537 242 l-128 68 16 32 c30 59 29 59 117 10 45
-24 129 -67 187 -95z m4140 96 c11 -20 19 -43 16 -50 -6 -17 -381 -201 -536
-262 -133 -53 -412 -148 -466 -158 -32 -6 -33 -4 -44 36 -6 24 -8 46 -3 50 4
4 58 22 118 40 144 42 341 115 490 181 123 54 363 174 380 190 15 15 22 11 45
-27z m-3225 -419 c87 -21 100 -32 91 -79 -8 -44 -16 -44 -139 -14 l-89 22 6
39 c9 53 14 60 40 54 11 -3 53 -13 91 -22z m2135 8 c0 -5 4 -25 9 -45 l9 -38
-40 -11 c-240 -64 -611 -117 -896 -126 l-183 -6 3 49 3 49 170 7 c260 11 612
59 825 113 63 15 100 18 100 8z m-1570 -104 c52 -5 167 -13 255 -17 l160 -7 0
-45 0 -45 -165 1 c-140 1 -440 27 -461 40 -4 2 0 24 9 50 l15 46 46 -6 c25 -4
89 -11 141 -17z"/>
<path d="M1450 5183 c-64 -24 -83 -113 -34 -152 50 -40 116 -23 140 35 13 30
12 38 0 62 -8 16 -21 33 -28 39 -17 15 -59 23 -78 16z"/>
<path d="M11200 5183 c-62 -23 -81 -103 -35 -148 55 -56 145 -16 145 63 0 57
-61 104 -110 85z"/>
<path d="M1940 3957 c-28 -14 -50 -51 -50 -85 0 -34 52 -82 88 -82 90 0 122
124 43 165 -36 18 -48 19 -81 2z"/>
<path d="M10681 3956 c-28 -16 -50 -52 -51 -84 0 -35 52 -82 90 -82 42 0 90
47 90 89 0 62 -76 108 -129 77z"/>
<path d="M2727 2900 c-80 -63 -6 -185 88 -146 18 8 38 23 44 34 46 85 -56 171
-132 112z"/>
<path d="M9862 2900 c-47 -44 -39 -111 15 -143 28 -16 38 -17 68 -7 37 12 65
51 65 90 0 12 -13 35 -29 51 -36 35 -86 39 -119 9z"/>
<path d="M3785 2108 c-48 -28 -60 -87 -25 -131 60 -77 187 -6 150 83 -22 54
-77 75 -125 48z"/>
<path d="M8827 2109 c-11 -6 -25 -26 -33 -44 -38 -92 70 -161 144 -93 22 21
29 68 16 103 -14 36 -89 56 -127 34z"/>
<path d="M5020 1613 c-51 -18 -76 -70 -56 -118 38 -91 166 -65 166 33 0 27 -7
44 -22 59 -25 22 -65 34 -88 26z"/>
<path d="M7633 1612 c-32 -5 -63 -49 -63 -89 0 -91 122 -115 165 -33 33 65
-25 134 -102 122z"/>
<path d="M6290 1420 c-27 -27 -35 -65 -20 -101 15 -35 37 -49 80 -49 43 0 65
14 80 49 25 61 -15 121 -82 121 -25 0 -45 -7 -58 -20z"/>
</g>
</svg>
